<svg width="186" height="145" viewBox="0 0 186 145" fill="none" xmlns="http://www.w3.org/2000/svg">
<path fill-rule="evenodd" clip-rule="evenodd" d="M63.463 137.267C63.463 133.185 66.7926 129.856 70.8741 129.856H82.4741C86.5555 129.856 89.8852 133.185 89.8852 137.267C89.8852 141.348 86.5555 144.678 82.4741 144.678H70.8741C66.7926 144.678 63.463 141.348 63.463 137.267Z" fill="#F49000"/>
<path fill-rule="evenodd" clip-rule="evenodd" d="M95.4704 137.267C95.4704 133.185 98.8 129.856 102.881 129.856H114.481C118.563 129.856 121.893 133.185 121.893 137.267C121.893 141.348 118.563 144.678 114.481 144.678H102.881C98.8 144.678 95.4704 141.348 95.4704 137.267Z" fill="#F49000"/>
<path d="M13.5185 109.233L55.3 33.6186C57.5555 29.6446 63.0333 29.0001 66.1481 32.3297C81.2926 48.5483 84.3 73.1445 73.3444 93.1223C62.3889 113.1 39.9407 123.519 18.137 119.222C13.6259 118.363 11.263 113.315 13.5185 109.233Z" fill="#58CC02"/>
<path d="M171.837 109.233L130.056 33.6186C127.8 29.5371 122.322 28.8926 119.1 32.2223C103.956 48.4408 100.948 73.0371 111.904 93.0149C122.859 112.993 145.307 123.411 167.111 119.115C171.73 118.363 174.093 113.315 171.837 109.233Z" fill="#58CC02"/>
<path fill-rule="evenodd" clip-rule="evenodd" d="M61.8519 2.14811C76.8889 8.48515 87.2 11.7074 92.7852 11.7074C98.3704 11.7074 108.467 8.59256 123.289 2.25552C133.063 -1.93337 144.448 2.68515 148.637 12.4592C149.604 14.8222 150.141 17.4 150.141 19.9777V80.0185C150.141 111.811 124.363 137.589 92.5704 137.589C60.7778 137.481 35 111.811 35 80.0185V19.8703C35 9.237 43.5926 0.644409 54.3333 0.644409C56.9111 0.644409 59.3815 1.18145 61.8519 2.14811Z" fill="#58CC02"/>
<path d="M88.2741 98.2778C88.4889 97.5259 87.9518 96.8815 87.2 96.8815H72.7C71.9481 96.8815 71.4111 97.6333 71.6259 98.2778C72.8074 101.607 76.137 103.97 79.8963 103.97C83.6555 103.97 87.0926 101.607 88.2741 98.2778ZM112.441 96.8815H97.9407C97.1889 96.8815 96.6518 97.6333 96.8667 98.2778C98.0481 101.607 101.378 103.97 105.137 103.97C108.896 103.97 112.333 101.607 113.515 98.2778C113.73 97.6333 113.193 96.8815 112.441 96.8815ZM99.7667 109.019H85.2667C84.5148 109.019 83.9778 109.77 84.1926 110.415C85.3741 113.744 88.7037 116.107 92.463 116.107C96.2222 116.107 99.6593 113.744 100.841 110.415C101.163 109.77 100.626 109.019 99.7667 109.019Z" fill="#89E219"/>
<path d="M65.1815 11.1703L82.5815 30.074C83.5481 31.0407 83.1185 32.6518 81.937 33.2962C75.9222 35.9814 68.8333 34.4777 64.3222 29.4296C59.8111 24.3814 59.0593 17.1851 62.2815 11.4925C63.0333 10.3111 64.2148 10.2037 65.1815 11.1703Z" fill="#89E219"/>
<path fill-rule="evenodd" clip-rule="evenodd" d="M80.2185 27.7111C86.5556 34.1555 97.7259 34.1555 104.707 27.7111C111.689 21.2666 103.633 65.0888 103.633 64.874C103.633 64.874 99.8741 64.7666 92.3556 64.874C90.3148 64.874 86.663 64.874 81.5074 64.874C76.4593 35.874 76.0296 23.4148 80.2185 27.7111Z" fill="#89E219"/>
<path d="M55.6222 15.6815L72.5926 34.6926C73.5593 35.6593 73.1296 37.2704 71.9482 37.9148C65.9333 40.6 58.8445 39.0963 54.3333 34.0481C49.8222 29 49.0704 21.8037 52.4 16.1111C53.0445 14.8222 54.6556 14.7148 55.6222 15.6815Z" fill="#89E219"/>
<path fill-rule="evenodd" clip-rule="evenodd" d="M63.5704 20.9443H64.2148C76.7815 20.9443 86.8778 31.148 86.8778 43.6073V55.6369C86.8778 68.2036 76.6741 78.2999 64.2148 78.2999H63.5704C51.0037 78.2999 40.9074 68.0962 40.9074 55.6369V43.7147C40.9074 31.148 51.0037 20.9443 63.5704 20.9443Z" fill="#89E219"/>
<path d="M119.744 11.1703L102.667 30.074C101.7 31.0407 102.13 32.6518 103.311 33.2962C109.326 35.9814 116.415 34.4777 120.926 29.4296C125.437 24.3814 126.189 17.1851 122.859 11.4925C122.215 10.3111 120.604 10.2037 119.744 11.1703Z" fill="#89E219"/>
<path d="M129.626 15.6815L112.548 34.6926C111.581 35.6593 112.011 37.2704 113.193 37.9148C119.207 40.6 126.296 39.0963 130.807 34.0481C135.319 29 136.07 21.8037 132.741 16.1111C132.204 14.8222 130.593 14.7148 129.626 15.6815Z" fill="#89E219"/>
<path fill-rule="evenodd" clip-rule="evenodd" d="M120.819 20.9443H121.463C134.03 20.9443 144.126 31.148 144.126 43.6073V55.6369C144.126 68.2036 133.922 78.2999 121.463 78.2999H120.926C108.467 78.2999 98.3704 68.2036 98.263 55.7443L98.1556 43.7147C98.0482 31.148 108.144 20.9443 120.819 20.9443Z" fill="#89E219"/>
<path fill-rule="evenodd" clip-rule="evenodd" d="M92.6778 55.7444C97.0815 55.7444 100.733 59.3962 100.733 63.7999V66.3777C100.733 70.7814 97.0815 74.4333 92.6778 74.4333C88.2741 74.4333 84.6222 70.7814 84.6222 66.3777V63.7999C84.6222 59.3962 88.2741 55.7444 92.6778 55.7444Z" fill="#F49000"/>
<path d="M81.5074 64.337C82.4741 59.3962 87.2 55.7444 92.7852 55.7444C98.0482 55.7444 102.667 59.5036 103.633 64.337V64.7666C103.633 65.0888 103.526 65.3036 103.204 65.1962L92.7852 67.0222C92.5704 67.0222 92.5704 67.0222 92.3556 67.0222L81.937 65.1962C81.6148 65.1962 81.5074 65.0888 81.5074 64.7666V64.337Z" fill="#FFC200"/>
<path d="M95.0408 61.0073C94.8259 61.0073 94.7185 61.0073 94.5037 60.8999C93.1074 60.3629 91.8185 60.3629 90.6371 60.8999C89.7778 61.2221 88.9185 60.7925 88.5963 60.0407C88.2741 59.1814 88.7037 58.3221 89.4556 57.9999C91.3889 57.2481 93.4296 57.2481 95.5778 57.9999C96.4371 58.3221 96.8667 59.1814 96.5445 60.0407C96.3296 60.5777 95.6852 61.0073 95.0408 61.0073Z" fill="#FFDE00"/>
<path fill-rule="evenodd" clip-rule="evenodd" d="M64.7518 29.1074C73.4518 29.1074 80.5407 36.1963 80.5407 44.8963V54.4556C80.5407 63.1556 73.4518 70.2445 64.7518 70.2445C56.0518 70.2445 48.963 63.1556 48.963 54.4556V44.8963C48.963 36.1963 56.0518 29.1074 64.7518 29.1074Z" fill="white"/>
<path fill-rule="evenodd" clip-rule="evenodd" d="M67.2222 38.1296C71.3037 38.1296 74.6333 41.4593 74.6333 45.5408V53.7037C74.6333 57.7852 71.3037 61.1148 67.2222 61.1148C63.1407 61.1148 59.8111 57.7852 59.8111 53.7037V45.5408C59.8111 41.4593 63.1407 38.1296 67.2222 38.1296Z" fill="#4B4B4B"/>
<path d="M60.9926 47.3666C63.662 47.3666 65.8259 45.2027 65.8259 42.5333C65.8259 39.8639 63.662 37.7 60.9926 37.7C58.3232 37.7 56.1592 39.8639 56.1592 42.5333C56.1592 45.2027 58.3232 47.3666 60.9926 47.3666Z" fill="white"/>
<path fill-rule="evenodd" clip-rule="evenodd" d="M120.281 29.1074C128.981 29.1074 136.07 36.1963 136.07 44.8963V54.4556C136.07 63.1556 128.981 70.2445 120.281 70.2445C111.581 70.2445 104.493 63.1556 104.493 54.4556V44.8963C104.493 36.1963 111.581 29.1074 120.281 29.1074Z" fill="white"/>
<path fill-rule="evenodd" clip-rule="evenodd" d="M117.811 38.1296C121.893 38.1296 125.222 41.4593 125.222 45.5408V53.7037C125.222 57.7852 121.893 61.1148 117.811 61.1148C113.73 61.1148 110.4 57.7852 110.4 53.7037V45.5408C110.4 41.4593 113.73 38.1296 117.811 38.1296Z" fill="#4B4B4B"/>
<path d="M110.722 47.3666C113.392 47.3666 115.556 45.2027 115.556 42.5333C115.556 39.8639 113.392 37.7 110.722 37.7C108.053 37.7 105.889 39.8639 105.889 42.5333C105.889 45.2027 108.053 47.3666 110.722 47.3666Z" fill="white"/>
</svg>
