<svg width="186" height="181" viewBox="0 0 186 181" fill="none" xmlns="http://www.w3.org/2000/svg">
<g clip-path="url(#clip0_1_497)">
<g clip-path="url(#clip1_1_497)">
<path d="M60.7354 148.876C65.6486 145.273 72.5529 146.334 76.1565 151.248C79.7599 156.161 78.6982 163.066 73.7849 166.669L65.5474 172.71C60.6342 176.313 53.7299 175.252 50.1263 170.34C46.5228 165.426 47.5845 158.521 52.4979 154.918L60.7354 148.876Z" fill="#E619DF"/>
<path fill-rule="evenodd" clip-rule="evenodd" d="M58.2363 150.711C61.5548 155.6 60.4325 162.277 55.6294 165.798L49.8896 170.009C46.5711 165.121 47.6934 158.444 52.4965 154.921L58.2363 150.711Z" fill="#C128C1"/>
<path d="M38.596 146.489C43.5092 142.885 50.4134 143.947 54.0169 148.86C57.6205 153.773 56.5588 160.678 51.6455 164.281L43.408 170.323C38.4946 173.926 31.5904 172.864 27.9869 167.952C24.3834 163.038 25.4451 156.133 30.3584 152.53L38.596 146.489Z" fill="#E619DF"/>
<path d="M30.0866 110.541L62.5608 33.5484C77.9342 31.5544 96.5831 58.5823 85.6268 90.0895C75.9448 117.933 52.17 123.578 33.1208 117.62C30.1756 116.699 28.8874 113.384 30.0866 110.541Z" fill="url(#paint0_radial_1_497)"/>
<path d="M116.932 12.7232C111.114 11.8613 87.3139 -8.11426 59.8425 4.59226C49.4196 9.41326 44.4177 18.0895 42.8548 31.0401C41.4699 42.5162 46.1414 54.187 49.76 66.7016C45.2014 81.0918 42.2174 91.1185 47.0589 103.777C55.918 126.939 84.1549 151.071 121.828 137.606C178.497 117.352 162.103 47.1601 157.794 31.6461C153.484 16.1321 143.903 9.06126 135.931 9.70768C127.958 10.3541 122.75 13.585 116.932 12.7232Z" fill="url(#paint1_radial_1_497)"/>
<path fill-rule="evenodd" clip-rule="evenodd" d="M59.286 123.103C66.61 120.757 74.8817 116.124 83.0483 107.087C84.028 106.003 83.9433 104.33 82.8593 103.35C81.7751 102.371 80.1022 102.455 79.1226 103.539C71.5637 111.904 64.0706 116.024 57.6203 118.08C56.9109 118.307 56.2129 118.508 55.5271 118.688C56.698 120.2 57.9522 121.676 59.286 123.103Z" fill="#1F66FB"/>
<path fill-rule="evenodd" clip-rule="evenodd" d="M156.891 38.4149C155.555 28.1999 150.185 24.1227 146.586 24.5933C142.987 25.0638 143.443 29.6162 144.779 39.8312C145.288 43.7264 145.504 45.8259 145.616 47.0832C148.086 48.8553 149.866 51.6115 149.866 54.7815C149.246 54.9736 148.566 55.1373 147.842 55.2742C148.532 56.7904 149.383 58.3215 150.345 59.4329C153.029 56.1936 156.308 54.123 158.612 53.0473C158.579 51.8592 158.465 50.4913 158.259 48.9155L156.891 38.4149Z" fill="#C7FFFE"/>
<path fill-rule="evenodd" clip-rule="evenodd" d="M145.616 47.0884C146.797 47.9355 147.82 49.0073 148.566 50.2416L148.734 50.2179C151.488 49.8286 153.404 47.2807 153.015 44.5269L151.291 32.3326C150.925 29.7459 148.655 27.8979 146.098 28.0056C147.11 28.7244 147.77 29.9058 147.77 31.2413C147.77 33.2986 146.204 34.9899 144.199 35.1879C144.358 36.5846 144.556 38.1316 144.779 39.8362C145.289 43.7316 145.504 45.8312 145.616 47.0884Z" fill="#3C4DFF"/>
<path fill-rule="evenodd" clip-rule="evenodd" d="M101.407 18.6156C111.277 17.3249 120.362 24.5593 121.698 34.7742L123.058 45.1781C123.91 51.6889 121.408 57.839 116.925 61.7775C110.464 56.9238 100.115 51.0272 87.3009 49.7519L85.9535 39.4484C84.6177 29.2335 91.5365 19.9064 101.407 18.6156Z" fill="#C7FFFE"/>
<path fill-rule="evenodd" clip-rule="evenodd" d="M102.592 34.7121C105.697 34.1838 107.783 31.2838 107.25 28.235C107.093 27.3333 106.724 26.5194 106.203 25.8342C106.846 25.5551 107.536 25.3476 108.261 25.2241C112.957 24.425 117.403 27.4433 118.192 31.9656L119.717 40.7001C120.506 45.2224 117.34 49.5362 112.644 50.3355C107.948 51.1345 103.502 48.1162 102.713 43.5939L101.188 34.8596C101.183 34.8327 101.179 34.8058 101.174 34.7788C101.638 34.8139 102.113 34.7936 102.592 34.7121Z" fill="#3C4DFF"/>
<path fill-rule="evenodd" clip-rule="evenodd" d="M130.218 57.2164C131.049 57.135 131.789 57.7429 131.87 58.5738C132.512 65.1376 134.237 69.5447 136.583 71.6027C137.7 72.583 138.978 73.0524 140.475 72.9813C142.016 72.9083 143.902 72.2544 146.146 70.7587C146.84 70.2956 147.779 70.4833 148.242 71.1781C148.705 71.8727 148.518 72.8113 147.823 73.2746C145.297 74.9583 142.884 75.8941 140.618 76.0015C138.308 76.111 136.272 75.3521 134.589 73.8755C131.334 71.02 129.519 65.5998 128.861 58.8681C128.779 58.0372 129.387 57.2976 130.218 57.2164Z" fill="#0455FF"/>
<path d="M141.228 68.9275C137.403 68.3049 137.003 65.4135 134.289 55.2718H144.431C144.653 56.9621 145.276 62.1664 145.588 64.3904C145.962 67.069 144.52 69.4632 141.228 68.9275Z" fill="#0455FF"/>
<path fill-rule="evenodd" clip-rule="evenodd" d="M133.709 46.6869C134.313 47.2627 135.242 47.6842 136.539 47.7395C136.676 47.7453 136.811 47.7506 136.944 47.7558C139.443 47.8539 141.31 47.9273 143.055 50.9402C143.85 52.3147 147.354 52.2832 147.928 49.2996C145.907 46.6755 142.596 44.9892 139.429 44.9893C137.269 44.9893 135.31 45.6409 133.709 46.6869Z" fill="#C7FFFE"/>
<path fill-rule="evenodd" clip-rule="evenodd" d="M128.423 54.2147C128.636 53.4073 129.462 52.9251 130.27 53.1377C137.419 55.0211 144.094 54.272 148.201 53.4507C149.02 53.287 149.816 53.8179 149.98 54.6367C150.144 55.4553 149.613 56.2517 148.794 56.4156C144.45 57.2845 137.266 58.1074 129.5 56.0616C128.692 55.849 128.21 55.0219 128.423 54.2147Z" fill="#0455FF"/>
<path fill-rule="evenodd" clip-rule="evenodd" d="M84.2759 8.06839C83.4382 7.75679 82.6203 7.73086 81.7825 8.24087C81.0692 8.67501 80.1392 8.44881 79.7051 7.73564C79.2709 7.02245 79.4971 6.09236 80.2103 5.65822C82.0316 4.54952 83.8605 4.68799 85.3299 5.23453C86.7489 5.7623 87.9009 6.68764 88.5949 7.30459C89.2189 7.85929 89.2752 8.81484 88.7205 9.43887C88.1659 10.0629 87.2102 10.1191 86.5862 9.56442C85.9797 9.02524 85.164 8.39875 84.2759 8.06839Z" fill="#C7FFFE"/>
<path fill-rule="evenodd" clip-rule="evenodd" d="M134.267 11.0305C134.979 10.5944 135.91 10.8181 136.346 11.5301C138.232 14.6095 138.783 17.4627 137.842 19.7008C136.868 22.0178 134.559 23.0844 132.093 23.0844C131.258 23.0844 130.581 22.4076 130.581 21.5727C130.581 20.7378 131.258 20.0608 132.093 20.0608C133.747 20.0608 134.692 19.3927 135.055 18.529C135.451 17.5864 135.424 15.813 133.768 13.1093C133.331 12.3973 133.555 11.4666 134.267 11.0305Z" fill="#1F66FB"/>
<path fill-rule="evenodd" clip-rule="evenodd" d="M81.6716 5.6806C82.4036 6.08206 82.6716 7.00098 82.2702 7.73306C80.6246 10.7336 81.4403 14.4062 81.9419 15.9107L82.3111 17.0186L81.3326 17.6556C81.0436 17.8439 80.5163 18.3499 79.8733 19.237C79.2529 20.0929 78.5914 21.2112 78.0017 22.5172C76.8172 25.1401 75.9706 28.4107 76.2342 31.7326C76.9602 40.8804 77.9646 50.0916 79.4931 54.955C79.5625 55.1756 79.6323 55.4021 79.7039 55.6338C80.4746 58.1295 81.4326 61.2319 83.8377 64.1241C86.4237 67.2338 90.8077 70.2239 98.8185 71.5475C111.77 73.6873 119.188 69.7555 121.07 67.9124C121.667 67.3282 122.624 67.3382 123.208 67.9349C123.792 68.5315 123.782 69.4886 123.186 70.0727C120.444 72.7576 111.964 76.7839 98.3257 74.5306C89.7171 73.1082 84.6354 69.8121 81.5129 66.0573C78.7029 62.6782 77.582 59.0269 76.8196 56.5435C76.7463 56.305 76.6765 56.0772 76.6086 55.8615C74.9579 50.6089 73.9393 41.0329 73.2202 31.9718C72.9057 28.0099 73.9137 24.2233 75.246 21.2727C75.9148 19.7919 76.6773 18.4944 77.4253 17.4626C77.8622 16.8598 78.3208 16.3104 78.7797 15.8626C78.2293 13.7132 77.6932 9.79098 79.6191 6.27921C80.0205 5.54714 80.9394 5.27914 81.6716 5.6806Z" fill="#1F66FB"/>
<path fill-rule="evenodd" clip-rule="evenodd" d="M163.253 66.6227C162.902 67.3081 162.229 68.1561 161.27 68.6678C160.275 69.199 158.814 69.4565 156.727 68.4861C155.97 68.1339 155.071 68.4622 154.719 69.2193C154.367 69.9764 154.695 70.8754 155.452 71.2276C158.337 72.5694 160.801 72.3453 162.694 71.335C162.914 71.2176 163.124 71.0908 163.324 70.9565C163.326 69.4967 163.301 68.0507 163.253 66.6227Z" fill="#0455FF"/>
<path fill-rule="evenodd" clip-rule="evenodd" d="M91.036 5.54575C90.226 5.32358 89.8379 5.32252 89.7285 5.34356C88.9086 5.50124 88.116 4.9644 87.9583 4.1445C87.8008 3.3246 88.3376 2.5321 89.1574 2.37443C89.9874 2.21483 90.9459 2.3858 91.8357 2.62987C92.7783 2.8884 93.8746 3.29743 95.0785 3.80706C97.488 4.82715 100.485 6.31824 103.818 8.02173C104.904 8.57669 106.028 9.15524 107.182 9.74969C113.156 12.8254 119.955 16.3266 126.626 19.1856C128.767 20.1035 131.119 20.141 131.782 20.0673C132.612 19.9752 133.359 20.573 133.452 21.4029C133.544 22.2327 132.946 22.9803 132.116 23.0724C131.044 23.1915 128.149 23.1281 125.434 21.9647C118.656 19.0593 111.744 15.4997 105.773 12.4249C104.625 11.834 103.513 11.261 102.442 10.714C99.1034 9.00756 96.1962 7.56356 93.8997 6.59136C92.7506 6.10486 91.7934 5.75346 91.036 5.54575Z" fill="#C7FFFE"/>
<g style="mix-blend-mode:overlay">
<path d="M118.017 94.6376L132.459 94.8197C133.233 94.8296 133.752 95.7181 133.483 96.5744C132.192 100.689 128.752 103.498 124.936 103.45C121.12 103.401 117.878 100.508 116.873 96.3647C116.663 95.5024 117.243 94.6277 118.017 94.6376Z" fill="#204AFF"/>
</g>
<g style="mix-blend-mode:overlay">
<path d="M142.125 95.0241L154.964 94.6095C155.74 94.5833 156.275 95.4449 156.021 96.3109C154.799 100.472 152.483 103.242 148.658 103.371C144.832 103.5 142.089 100.882 141.008 96.7987C140.783 95.9489 141.348 95.0502 142.125 95.0241Z" fill="#204AFF"/>
</g>
<g style="mix-blend-mode:overlay">
<path d="M130.116 110.521L143.413 110.715C144.188 110.697 144.724 111.566 144.471 112.43C143.257 116.583 141.032 118.985 137.211 119.072C133.391 119.159 130.09 116.386 129.004 112.285C128.778 111.432 129.341 110.538 130.116 110.521Z" fill="#204AFF"/>
</g>
</g>
</g>
<defs>
<radialGradient id="paint0_radial_1_497" cx="0" cy="0" r="1" gradientUnits="userSpaceOnUse" gradientTransform="translate(133.284 18.9142) rotate(119.366) scale(133.976 179.711)">
<stop stop-color="#26FF55"/>
<stop offset="0.569543" stop-color="#268AFF"/>
<stop offset="0.987801" stop-color="#FC55FF"/>
</radialGradient>
<radialGradient id="paint1_radial_1_497" cx="0" cy="0" r="1" gradientUnits="userSpaceOnUse" gradientTransform="translate(133.284 18.9142) rotate(119.366) scale(133.976 179.711)">
<stop stop-color="#26FF55"/>
<stop offset="0.569543" stop-color="#268AFF"/>
<stop offset="0.987801" stop-color="#FC55FF"/>
</radialGradient>
<clipPath id="clip0_1_497">
<rect width="185" height="180" fill="white" transform="translate(0.5 0.375)"/>
</clipPath>
<clipPath id="clip1_1_497">
<rect width="143.077" height="180" fill="white" transform="translate(21.4615 0.375)"/>
</clipPath>
</defs>
</svg>
