<svg width="184" height="220" viewBox="0 0 184 220" fill="none" xmlns="http://www.w3.org/2000/svg">
<path d="M144.321 43.8791C133.526 43.8791 124.774 52.6314 124.774 63.427V93.5093C124.774 104.306 133.526 113.057 144.321 113.057H158.062C159.602 113.057 161.079 112.445 162.168 111.356C163.257 110.267 163.869 108.789 163.869 107.249V63.427C163.869 52.6314 155.118 43.8791 144.321 43.8791Z" fill="#EA2B2B"/>
<path d="M91.4975 197.394C92.2042 200.511 91.4177 203.486 89.1371 206.321" stroke="#F49000" stroke-width="11.979" stroke-linecap="round" stroke-linejoin="round"/>
<path d="M40.7334 43.8378H133.3C143.725 43.8378 152.176 52.2889 152.176 62.7138V158.195C152.176 168.62 143.725 177.071 133.3 177.071H40.7334C30.3085 177.071 21.8574 168.62 21.8574 158.195V62.7138C21.8574 52.2889 30.3085 43.8378 40.7334 43.8378Z" fill="#FF4B4B"/>
<path d="M85.2889 43.8378H39.1512C28.6004 43.8378 20.0479 52.8707 20.0479 64.0137V156.896C20.0479 168.039 28.6004 177.072 39.1512 177.072H85.2889C95.8397 177.072 104.392 168.039 104.392 156.896V64.0137C104.392 52.8707 95.8397 43.8378 85.2889 43.8378Z" fill="#FF4B4B"/>
<path d="M25.3545 53.5866L32.862 50.7028C33.752 50.3951 34.7267 50.4453 35.5803 50.8428C36.434 51.2403 37.0997 51.9539 37.4371 52.8331L43.6512 69.0398C43.9961 69.9386 43.9699 70.9376 43.5783 71.8171C43.1867 72.6965 42.4618 73.3844 41.563 73.7294L22.2259 81.1581V64.0137C22.2259 60.215 23.3333 56.6033 25.3545 53.5866Z" fill="#1CB0F6" stroke="#FFDE00" stroke-width="4.356"/>
<path d="M72.0779 76.8846L72.0816 76.8809C76.4293 73.3628 82.8066 74.0347 86.3257 78.3824C89.8475 82.7338 89.1765 89.1166 84.8269 92.6403L77.7961 98.3364L77.7915 98.3401C73.4438 101.859 67.0665 101.187 63.5483 96.8395C60.0265 92.4881 60.6975 86.1053 65.0471 82.5808L72.0779 76.8846Z" fill="white" stroke="#F49000" stroke-width="4.356"/>
<path d="M121.406 61.3947C121.406 51.6983 129.267 43.8378 138.963 43.8378C148.66 43.8378 156.52 51.6983 156.52 61.3947V159.514C156.52 169.21 148.66 177.071 138.963 177.071C129.267 177.071 121.406 169.21 121.406 159.514V61.3947Z" fill="#EA2B2B"/>
<path d="M149.152 109.633L160.751 112.311C164.853 113.258 167.41 117.351 166.463 121.453L158.487 156.005C157.539 160.107 153.446 162.664 149.344 161.717L137.745 159.04C133.643 158.093 131.086 153.999 132.033 149.897L140.009 115.346C140.956 111.244 145.05 108.686 149.152 109.633Z" fill="#CCF8F7"/>
<path d="M162.94 121.231C155.347 124.52 150.268 126.481 147.704 127.112C145.509 127.654 143.543 126.857 141.804 124.72C141.675 124.562 141.505 124.443 141.312 124.377C141.119 124.311 140.911 124.301 140.712 124.347C140.514 124.393 140.332 124.494 140.188 124.639C140.044 124.783 139.944 124.965 139.898 125.164L134.373 149.34C133.923 151.308 134.272 153.374 135.344 155.085C136.416 156.796 138.122 158.012 140.09 158.466L147.836 160.254C149.804 160.709 151.872 160.363 153.586 159.294C155.3 158.225 156.519 156.52 156.976 154.552L164.433 122.477C164.479 122.281 164.469 122.076 164.405 121.885C164.341 121.693 164.225 121.524 164.07 121.395C163.915 121.265 163.727 121.182 163.528 121.153C163.328 121.124 163.125 121.151 162.94 121.231Z" fill="#47D7FF"/>
<path d="M151.408 100.026L164.097 102.956C165.073 103.181 165.682 104.156 165.457 105.132L164.644 108.653C164.418 109.63 163.444 110.239 162.467 110.014L149.779 107.084C148.802 106.859 148.193 105.884 148.419 104.907L149.231 101.386C149.457 100.41 150.432 99.8008 151.408 100.026Z" fill="#1899D6"/>
<path d="M148.78 106.814L162.533 109.989C163.508 110.214 164.116 111.187 163.891 112.161C163.666 113.136 162.693 113.743 161.718 113.518L147.965 110.343C146.991 110.118 146.383 109.146 146.608 108.171C146.833 107.197 147.805 106.589 148.78 106.814Z" fill="#CCF8F7"/>
<path d="M16.0659 178.041C7.46911 178.041 0.500011 170.877 0.500011 162.04C0.500011 153.203 7.46911 146.04 16.0659 146.04C24.6627 146.04 31.6318 153.203 31.6318 162.04C31.6318 170.877 24.6627 178.041 16.0659 178.041Z" fill="#78C800"/>
<path d="M28.0202 141.214H42.4833C51.2847 141.214 58.4196 148.349 58.4196 157.151C58.4196 165.952 51.2847 173.087 42.4833 173.087H28.0202C19.2188 173.087 12.0839 165.952 12.0839 157.151C12.0839 148.349 19.2188 141.214 28.0202 141.214Z" stroke="#FF4B4B" stroke-width="6.897"/>
<path d="M87.2909 87.7929C68.2939 93.424 55.9757 96.2391 50.3355 96.2391C47.1235 96.2391 43.7786 94.8778 40.3007 92.1544C33.5293 86.8524 23.7412 88.0441 18.4392 94.8164C16.2939 97.5564 15.1283 100.936 15.1282 104.416V151.178C15.1282 176.627 35.7587 197.258 61.209 197.258C86.6575 197.258 107.289 176.627 107.289 151.177V102.724C107.289 94.1234 100.317 87.1512 91.7157 87.1512C90.2178 87.1512 88.7273 87.3676 87.2909 87.7929Z" fill="#78C800"/>
<path fill-rule="evenodd" clip-rule="evenodd" d="M54.4367 110.211C50.4721 114.535 43.9986 113.816 40.6793 110.169C35.5368 104.638 34.6486 112.94 38.0173 135.076H57.315C58.0392 115.617 57.0803 107.328 54.4367 110.211Z" fill="#8EE000"/>
<path fill-rule="evenodd" clip-rule="evenodd" d="M70.1199 103.847H68.9713C59.4233 103.847 51.683 111.587 51.683 121.136V131.533C51.683 141.081 59.4233 148.821 68.9713 148.821H70.1199C79.6679 148.821 87.4082 141.081 87.4082 131.533V121.136C87.4082 111.588 79.6679 103.847 70.1199 103.847Z" fill="#8EE000"/>
<path d="M66.7768 96.7964L52.805 111.981C52.0717 112.795 52.3448 114.086 53.344 114.529C58.1446 116.665 63.8728 115.461 67.4854 111.449C71.0989 107.437 71.6984 101.616 69.0722 97.0668C68.5258 96.1181 67.5102 95.9833 66.7768 96.7964Z" fill="#8EE000"/>
<path d="M73.7316 100.406L60.0558 115.59C59.3225 116.404 59.5957 117.695 60.5948 118.138C65.3954 120.274 71.1237 119.07 74.7362 115.058C78.3497 111.046 78.9492 105.225 76.323 100.675C76.1956 100.455 76.0181 100.268 75.8048 100.13C75.5915 99.9921 75.3486 99.9064 75.0959 99.8801C74.8432 99.8538 74.5878 99.8877 74.3507 99.979C74.1136 100.07 73.9014 100.217 73.7316 100.406ZM28.4547 97.3556L39.8085 109.635C40.4025 110.295 40.0358 111.472 39.0843 111.96C34.5092 114.307 29.3942 113.757 26.4655 110.505C23.5367 107.254 23.523 102.11 26.3344 97.8075C26.9202 96.911 27.8597 96.6965 28.4547 97.3556Z" fill="#8EE000"/>
<path fill-rule="evenodd" clip-rule="evenodd" d="M28.5821 103.847C21.0846 103.847 15.0071 109.925 15.0071 117.421V135.246C15.0071 142.743 21.0846 148.821 28.5821 148.821C36.0795 148.821 42.157 142.743 42.157 135.246V117.421C42.157 109.925 36.0795 103.846 28.5821 103.846V103.847Z" fill="#8EE000"/>
<path d="M69.0272 109.865C62.0221 109.865 56.3424 115.545 56.3424 122.55V130.377C56.3424 137.383 62.0221 143.061 69.0272 143.061C76.0333 143.061 81.713 137.383 81.713 130.377V122.55C81.713 115.545 76.0333 109.865 69.0272 109.865Z" fill="white"/>
<mask id="mask0_1_440" style="mask-type:luminance" maskUnits="userSpaceOnUse" x="52" y="106" width="34" height="41">
<path d="M69.0271 109.865C62.022 109.865 56.3423 115.545 56.3423 122.55V130.377C56.3423 137.382 62.022 143.061 69.0271 143.061C76.0332 143.061 81.712 137.382 81.712 130.377V122.55C81.712 115.545 76.0332 109.865 69.0271 109.865Z" stroke="#8EE000" stroke-width="7.623"/>
</mask>
<g mask="url(#mask0_1_440)">
<path d="M82.6691 137.6C74.0341 137.482 66.071 140.258 58.7771 145.927" stroke="#8EE000" stroke-width="7.623"/>
</g>
<path d="M30.3512 110.227C24.7477 110.227 20.2047 114.77 20.2047 120.375V132.915C20.2047 138.518 24.7477 143.062 30.3522 143.062C35.9557 143.062 40.4987 138.518 40.4987 132.915V120.375C40.4987 114.77 35.9557 110.227 30.3512 110.227Z" fill="white"/>
<path d="M30.3512 110.227C24.7477 110.227 20.2047 114.77 20.2047 120.375V132.915C20.2047 138.518 24.7477 143.062 30.3522 143.062C35.9557 143.062 40.4987 138.518 40.4987 132.915V120.375C40.4987 114.77 35.9557 110.227 30.3512 110.227Z" fill="white"/>
<path fill-rule="evenodd" clip-rule="evenodd" d="M29.5785 114.78C28.9367 114.78 28.3011 114.907 27.7081 115.152C27.1151 115.398 26.5763 115.758 26.1224 116.211C25.6686 116.665 25.3085 117.204 25.0629 117.797C24.8172 118.39 24.6908 119.025 24.6908 119.667V128.728C24.6908 129.369 24.8172 130.005 25.0628 130.598C25.3084 131.191 25.6683 131.729 26.1221 132.183C26.5759 132.637 27.1146 132.997 27.7075 133.242C28.3004 133.488 28.9358 133.614 29.5776 133.614C30.2193 133.614 30.8548 133.488 31.4476 133.242C32.0405 132.997 32.5792 132.637 33.033 132.183C33.4868 131.729 33.8468 131.191 34.0923 130.598C34.3379 130.005 34.4643 129.369 34.4643 128.728V119.667C34.4641 118.372 33.9492 117.129 33.033 116.213C32.1168 115.296 30.8742 114.781 29.5785 114.78ZM64.6914 114.418C63.1073 114.418 61.588 115.048 60.4678 116.168C59.3477 117.288 58.7184 118.807 58.7184 120.391V127.279C58.7184 128.863 59.3477 130.383 60.4678 131.503C61.588 132.623 63.1073 133.252 64.6914 133.252C66.2755 133.252 67.7948 132.623 68.9149 131.503C70.0351 130.383 70.6644 128.863 70.6644 127.279V120.391C70.6644 118.807 70.0351 117.288 68.9149 116.168C67.7948 115.048 66.2755 114.418 64.6914 114.418Z" fill="#4B4B4B"/>
<path fill-rule="evenodd" clip-rule="evenodd" d="M46.8146 132.062C45.0982 132.062 43.4521 132.744 42.2384 133.958C41.0247 135.172 40.3429 136.818 40.3429 138.534V146.597C40.3429 148.313 41.0247 149.96 42.2384 151.173C43.4521 152.387 45.0982 153.069 46.8146 153.069C48.531 153.069 50.177 152.387 51.3907 151.173C52.6044 149.96 53.2862 148.313 53.2862 146.597V138.534C53.2862 136.818 52.6044 135.172 51.3907 133.958C50.177 132.744 48.531 132.062 46.8146 132.062Z" fill="#F49000"/>
<path d="M46.0904 134.959C44.8423 134.959 43.6452 135.455 42.7626 136.337C41.8801 137.22 41.3842 138.417 41.3842 139.665V145.465C41.3842 146.713 41.8801 147.91 42.7626 148.793C43.6452 149.675 44.8423 150.171 46.0904 150.171C47.3386 150.171 48.5356 149.675 49.4182 148.793C50.3007 147.91 50.7966 146.713 50.7966 145.465V139.665C50.7966 138.417 50.3007 137.22 49.4182 136.337C48.5356 135.455 47.3386 134.959 46.0904 134.959Z" fill="#CD7900"/>
<mask id="mask1_1_440" style="mask-type:luminance" maskUnits="userSpaceOnUse" x="41" y="134" width="10" height="17">
<path d="M46.0904 134.959C45.4724 134.959 44.8604 135.081 44.2894 135.317C43.7185 135.554 43.1996 135.9 42.7626 136.337C42.3256 136.774 41.979 137.293 41.7425 137.864C41.506 138.435 41.3842 139.047 41.3842 139.665V145.465C41.3842 146.713 41.8801 147.91 42.7626 148.793C43.6452 149.675 44.8423 150.171 46.0904 150.171C47.3386 150.171 48.5356 149.675 49.4182 148.793C50.3007 147.91 50.7966 146.713 50.7966 145.465V139.665C50.7966 138.417 50.3007 137.22 49.4182 136.337C48.5356 135.455 47.3386 134.959 46.0904 134.959V134.959Z" fill="#FFBABA"/>
</mask>
<g mask="url(#mask1_1_440)">
<path d="M50.9011 156.92C46.8024 156.92 43.4797 153.595 43.4797 149.495C43.4797 145.394 46.8024 142.07 50.9011 142.07C54.9997 142.07 58.3224 145.394 58.3224 149.495C58.3224 153.595 54.9997 156.92 50.9011 156.92Z" fill="#FFBABA"/>
</g>
<path d="M55.3093 138.536C54.5971 134.23 50.7902 131.025 46.2967 131.025C41.8032 131.025 37.9972 134.23 37.2858 138.536L37.2363 138.832L41.6886 140.361L55.3579 138.832L55.3093 138.536Z" fill="#FFC200"/>
<path d="M48.1089 133.963C46.7663 133.503 45.3091 133.503 43.9665 133.963" stroke="#FFDE00" stroke-width="2.59508" stroke-linecap="round" stroke-linejoin="round"/>
<path d="M69.6927 122.016C67.5482 122.016 65.8097 120.274 65.8097 118.125C65.8097 115.977 67.5482 114.235 69.6927 114.235C71.8373 114.235 73.5757 115.977 73.5757 118.125C73.5757 120.274 71.8373 122.016 69.6927 122.016Z" fill="white"/>
<path fill-rule="evenodd" clip-rule="evenodd" d="M34.4817 122.74C33.9713 122.74 33.4659 122.639 32.9944 122.443C32.5229 122.247 32.0946 121.961 31.7339 121.599C31.3733 121.238 31.0873 120.809 30.8924 120.337C30.6974 119.866 30.5973 119.36 30.5978 118.85C30.5973 118.339 30.6974 117.834 30.8924 117.362C31.0873 116.89 31.3733 116.461 31.7339 116.1C32.0946 115.739 32.5229 115.452 32.9944 115.256C33.4659 115.061 33.9713 114.96 34.4817 114.959C34.9921 114.96 35.4975 115.061 35.9688 115.257C36.4402 115.452 36.8684 115.739 37.229 116.1C37.5895 116.461 37.8754 116.89 38.0703 117.362C38.2652 117.834 38.3652 118.339 38.3647 118.85C38.3652 119.36 38.2652 119.865 38.0703 120.337C37.8754 120.809 37.5895 121.238 37.229 121.599C36.8684 121.96 36.4402 122.247 35.9688 122.443C35.4975 122.638 34.9921 122.739 34.4817 122.74Z" fill="white"/>
<path fill-rule="evenodd" clip-rule="evenodd" d="M15.5498 139.217C15.824 140.225 16.1996 141.202 16.6709 142.134C20.7226 144.074 29.0853 146.164 35.8806 146.164C38.3006 146.164 38.8836 143.101 37.7295 142.541C30.8636 139.213 23.7686 138.05 16.4454 139.052C16.1053 139.098 15.8074 139.154 15.5498 139.217Z" fill="#8EE000"/>
<path d="M63.2935 164.399L51.6775 164.395C51.0542 164.395 50.6142 164.969 50.8067 165.53C51.7307 168.224 54.4183 170.086 57.4873 170.086C60.5563 170.088 63.244 168.229 64.1662 165.535C64.3587 164.974 63.9159 164.399 63.2935 164.399ZM44.1077 164.399L32.4917 164.395C31.8683 164.395 31.4283 164.969 31.6208 165.53C32.5448 168.224 35.2325 170.086 38.3015 170.086C41.3705 170.088 44.0582 168.229 44.9803 165.535C45.1728 164.974 44.7301 164.399 44.1077 164.399ZM53.1579 174.178L41.541 174.174C40.9186 174.174 40.4777 174.749 40.6702 175.309C41.5951 178.004 44.2827 179.865 47.3517 179.865C50.4207 179.867 53.1075 178.008 54.0297 175.314C54.2222 174.753 53.7803 174.178 53.1579 174.178Z" fill="#8EE000"/>
<path d="M26.8771 197.97C28.1348 200.907 30.5199 202.851 34.0308 203.803" stroke="#F49000" stroke-width="11.979" stroke-linecap="round" stroke-linejoin="round"/>
<path d="M50.7691 0.375H41.816C32.1928 0.375 24.392 8.17583 24.392 17.799V26.4138C24.392 36.037 32.1928 43.8378 41.816 43.8378H68.1931V17.799C68.194 8.17767 60.3931 0.375 50.7691 0.375Z" fill="#1CB0F6"/>
<path d="M62.8067 3.27258H102.54C111.16 3.27258 118.149 10.261 118.149 18.8816V28.2288C118.149 36.8494 111.16 43.8378 102.54 43.8378H62.8067C54.1861 43.8378 47.1977 36.8494 47.1977 28.2288V18.8816C47.1977 10.261 54.1861 3.27258 62.8067 3.27258Z" fill="#AA572A"/>
<path d="M73.3117 0.375H98.1891C108.213 0.375 116.339 8.50103 116.339 18.525V25.6878C116.339 35.7118 108.213 43.8378 98.1891 43.8378H73.3117C63.2878 43.8378 55.1617 35.7118 55.1617 25.6878V18.525C55.1617 8.50103 63.2878 0.375 73.3117 0.375Z" fill="#1CB0F6"/>
<path d="M107.332 3.27258H133.309C141.93 3.27258 148.918 10.261 148.918 18.8816V28.2288C148.918 36.8494 141.93 43.8378 133.309 43.8378H107.332C98.7114 43.8378 91.723 36.8494 91.723 28.2288V18.8816C91.723 10.261 98.7114 3.27258 107.332 3.27258Z" fill="#AA572A"/>
<path d="M118.198 0.375H139.82C149.643 0.375 157.607 8.33851 157.607 18.162V26.0508C157.607 35.8743 149.643 43.8378 139.82 43.8378H118.198C108.375 43.8378 100.411 35.8743 100.411 26.0508V18.162C100.411 8.33851 108.375 0.375 118.198 0.375Z" fill="#1CB0F6"/>
<path d="M141.723 0.375H144.167C153.189 0.375 160.502 7.68843 160.502 16.71V27.5028C160.502 36.5244 153.189 43.8378 144.167 43.8378H141.723C132.702 43.8378 125.388 36.5244 125.388 27.5028V16.71C125.388 7.68843 132.702 0.375 141.723 0.375Z" fill="#0190D3"/>
<path d="M159.766 145.198H121.769V177.071H159.766C160.921 177.071 162.029 176.612 162.846 175.795C163.663 174.979 164.122 173.871 164.122 172.716V149.554C164.122 148.399 163.663 147.291 162.846 146.474C162.03 145.657 160.922 145.198 159.766 145.198Z" fill="#EA2B2B"/>
<path d="M153.986 150.631C152.973 150.631 152.139 151.428 152.092 152.44L151.569 163.675C151.554 164.001 151.606 164.328 151.72 164.634C151.835 164.94 152.01 165.22 152.236 165.457C152.462 165.693 152.734 165.882 153.034 166.01C153.335 166.139 153.659 166.205 153.986 166.205C154.313 166.205 154.637 166.139 154.937 166.01C155.238 165.882 155.509 165.693 155.735 165.457C155.961 165.22 156.137 164.94 156.251 164.634C156.366 164.328 156.417 164.001 156.402 163.675L155.88 152.44C155.857 151.953 155.648 151.493 155.295 151.156C154.942 150.819 154.473 150.631 153.986 150.631ZM132.019 87.3007C131.007 87.3007 130.173 88.0963 130.126 89.1083L129.603 100.344C129.588 100.671 129.64 100.997 129.754 101.303C129.869 101.609 130.045 101.889 130.27 102.126C130.496 102.362 130.768 102.55 131.068 102.679C131.369 102.808 131.693 102.874 132.02 102.874C132.347 102.874 132.67 102.808 132.971 102.679C133.272 102.55 133.543 102.362 133.769 102.126C133.995 101.889 134.17 101.609 134.285 101.303C134.4 100.997 134.451 100.671 134.436 100.344L133.913 89.1083C133.891 88.6213 133.681 88.1617 133.329 87.8251C132.976 87.4884 132.506 87.3006 132.019 87.3007Z" fill="#DF8A8A"/>
<path opacity="0.551" d="M155.793 81.1434H131.184C130.582 81.1434 130.095 81.6311 130.095 82.2324V84.0382C130.095 84.6396 130.582 85.1273 131.184 85.1273H155.793C156.082 85.1273 156.359 85.0125 156.563 84.8083C156.768 84.6041 156.882 84.3271 156.882 84.0382V82.2324C156.882 81.6311 156.395 81.1434 155.793 81.1434Z" fill="#D8D8D8"/>
<path d="M91.5507 140.49H99.8584C108.96 140.49 116.338 147.868 116.338 156.97C116.338 166.071 108.96 173.449 99.8584 173.449H91.5507C82.4491 173.449 75.0708 166.071 75.0708 156.97C75.0708 147.868 82.4491 140.49 91.5507 140.49Z" stroke="#EA2B2B" stroke-width="6.897"/>
<path d="M96.9718 180.87C86.2761 180.87 77.6054 172.035 77.6054 161.135C77.6054 150.236 86.2761 141.4 96.9718 141.4C107.668 141.4 116.338 150.236 116.338 161.135C116.338 172.035 107.668 180.87 96.9718 180.87Z" fill="#78C800"/>
<path d="M110.173 215.685H19.0964" stroke="#E2E2E2" stroke-width="7.26733" stroke-linecap="round" stroke-linejoin="round"/>
</svg>
