<svg width="246" height="163" viewBox="0 0 246 163" fill="none" xmlns="http://www.w3.org/2000/svg">
<g clip-path="url(#clip0_1_314)">
<path fill-rule="evenodd" clip-rule="evenodd" d="M137.511 162.194H38.8457C36.2606 162.194 34.1064 160.04 34.1064 157.455C34.1064 154.87 36.2606 152.715 38.8457 152.715H137.511C140.096 152.715 142.25 154.87 142.25 157.455C142.25 160.04 140.182 162.194 137.511 162.194Z" fill="#AFAFAF" fill-opacity="0.3"/>
<path fill-rule="evenodd" clip-rule="evenodd" d="M126.395 134.103C124.757 130.828 120.794 129.449 117.519 131.087L108.127 135.654C104.852 137.291 103.473 141.255 105.111 144.529C106.748 147.804 110.712 149.182 113.986 147.545L123.379 142.978C126.653 141.341 128.032 137.377 126.395 134.103Z" fill="#F49000"/>
<path fill-rule="evenodd" clip-rule="evenodd" d="M82.7925 145.994C82.7925 142.289 79.7766 139.359 76.1574 139.359H65.7308C62.0255 139.359 59.0957 142.375 59.0957 145.994C59.0957 149.699 62.1117 152.629 65.7308 152.629H76.1574C79.8628 152.629 82.7925 149.699 82.7925 145.994Z" fill="#F49000"/>
<path fill-rule="evenodd" clip-rule="evenodd" d="M12.3915 45.3474C32.9862 37.6782 45.7394 31.9048 50.7372 28.1995C53.5808 26.0452 55.6489 22.5984 56.9415 17.859C59.4404 8.63883 68.9191 3.12394 78.1394 5.62288C81.8447 6.65692 85.2053 8.81118 87.5319 11.9133L118.812 53.4473C135.787 76.0239 131.306 108.079 108.73 125.141C86.1532 142.117 54.0979 137.636 37.0362 115.059L4.55 71.9739C-1.2234 64.3048 0.327665 53.5335 7.99681 47.7601C9.28936 46.7261 10.7543 45.9505 12.3915 45.3474Z" fill="#58CC02"/>
<path fill-rule="evenodd" clip-rule="evenodd" d="M56.5106 43.2793C62.8872 44.4856 68.1436 39.4878 68.6606 34.059C69.5223 25.7005 75.8989 32.508 87.7043 54.3952L70.5564 67.3208C56.8553 50.5176 52.2021 42.5037 56.5106 43.2793Z" fill="#89E219"/>
<path fill-rule="evenodd" clip-rule="evenodd" d="M38.3287 48.1048L39.3628 47.3293C47.8074 40.9527 59.8713 42.6761 66.2479 51.1207L73.2277 60.341C79.6043 68.7856 77.8809 80.8495 69.4362 87.2261L68.4021 88.0016C59.9575 94.3782 47.8936 92.6548 41.517 84.2101L34.5372 74.9899C28.1606 66.5452 29.884 54.4814 38.3287 48.1048Z" fill="#89E219"/>
<path fill-rule="evenodd" clip-rule="evenodd" d="M36.5191 39.6601L59.0957 43.7963C60.3021 44.0548 60.9053 45.3473 60.3021 46.3814C57.4585 51.4654 51.5989 54.2229 45.7394 53.1027C39.8798 51.9824 35.3989 47.1569 34.7096 41.3835C34.5372 40.1771 35.3989 39.4016 36.5191 39.6601Z" fill="#89E219"/>
<path fill-rule="evenodd" clip-rule="evenodd" d="M32.8138 47.5016L55.1319 51.8101C56.3383 52.0686 56.9415 53.3612 56.3383 54.3952C53.4947 59.4793 47.6351 62.2367 41.7755 61.1165C35.9159 59.9963 31.4351 55.1707 30.7457 49.3973C30.5734 48.2771 31.6074 47.2431 32.8138 47.5016Z" fill="#89E219"/>
<path fill-rule="evenodd" clip-rule="evenodd" d="M70.6425 14.4984L68.7468 33.025C68.6606 33.9729 69.7808 34.8346 70.9872 34.5761C76.5883 33.6282 80.8106 29.6644 81.2415 24.8388C81.6723 20.0133 78.2255 15.4463 72.883 13.4644C71.6766 13.1197 70.7287 13.5505 70.6425 14.4984Z" fill="#89E219"/>
<path fill-rule="evenodd" clip-rule="evenodd" d="M79.2596 14.5846L77.3638 33.1112C77.2777 34.059 78.3979 34.9207 79.6043 34.6622C85.2053 33.7143 89.4277 29.7505 89.8585 24.925C90.2894 20.0995 86.8426 15.5324 81.5 13.5505C80.2936 13.2058 79.3457 13.6367 79.2596 14.5846Z" fill="#89E219"/>
<path fill-rule="evenodd" clip-rule="evenodd" d="M75.1234 20.358C81.7585 15.3601 91.2372 16.6527 96.2351 23.2878L108.213 39.1431C113.211 45.7782 111.918 55.2569 105.283 60.2548C98.6479 65.2527 89.1692 63.9601 84.1713 57.325L72.1936 41.4697C67.1957 34.8346 68.4883 25.3559 75.1234 20.358Z" fill="#89E219"/>
<path fill-rule="evenodd" clip-rule="evenodd" d="M43.3266 52.758C49.5309 48.1048 58.4064 49.3112 63.0596 55.5154L68.316 62.4952C72.9691 68.6995 71.7628 77.575 65.5585 82.2282C59.3543 86.8814 50.4787 85.675 45.8255 79.4708L40.5691 72.491C35.8298 66.2867 37.1223 57.4112 43.3266 52.758Z" fill="white"/>
<path fill-rule="evenodd" clip-rule="evenodd" d="M48.4968 59.1346C51.4266 56.9803 55.5628 57.4974 57.717 60.4271L62.1979 66.3729C64.3521 69.3027 63.8351 73.4388 60.9053 75.5931C57.9755 77.7474 53.8394 77.2303 51.6851 74.3005L47.2043 68.3548C45.05 65.5112 45.6532 61.375 48.4968 59.1346Z" fill="#4B4B4B"/>
<path fill-rule="evenodd" clip-rule="evenodd" d="M50.9096 65.7697C50.9096 68.1492 48.9806 70.0782 46.6011 70.0782C44.2215 70.0782 42.2925 68.1492 42.2925 65.7697C42.2925 63.3902 44.2215 61.4612 46.6011 61.4612C48.9806 61.4612 50.9096 63.3902 50.9096 65.7697Z" fill="white"/>
<path fill-rule="evenodd" clip-rule="evenodd" d="M77.8809 27.2516C82.8787 23.5463 89.9447 24.4942 93.65 29.492L102.009 40.608C105.714 45.6059 104.766 52.6718 99.7681 56.3771C94.7702 60.0825 87.7043 59.1346 83.9989 54.1367L75.6404 43.0208C71.8489 38.0229 72.883 30.9569 77.8809 27.2516Z" fill="white"/>
<path fill-rule="evenodd" clip-rule="evenodd" d="M82.6202 33.542C85.033 31.7324 88.4798 32.2495 90.2894 34.5761L96.2351 42.4175C98.0447 44.8303 97.5277 48.2771 95.2011 50.0867C92.7883 51.8963 89.3415 51.3792 87.5319 49.0526L81.5 41.125C79.6904 38.7122 80.2075 35.3516 82.6202 33.542Z" fill="#4B4B4B"/>
<path fill-rule="evenodd" clip-rule="evenodd" d="M83.5681 43.8825C85.4638 42.4176 85.8085 39.7463 84.4298 37.8505C83.0511 35.9548 80.2936 35.5239 78.3979 36.9888C76.5021 38.4537 76.1575 41.125 77.5362 43.0208C78.9149 44.9165 81.6723 45.2612 83.5681 43.8825Z" fill="white"/>
<path fill-rule="evenodd" clip-rule="evenodd" d="M51.2543 90.5867L44.7915 82.3144C45.3947 81.7974 60.5606 69.992 76.5021 73.3527L75.899 76.1101C75.1234 79.9016 72.0213 82.9176 68.1436 83.3484C59.1819 84.3825 51.3404 90.5005 51.2543 90.5867Z" fill="#89E219"/>
<path fill-rule="evenodd" clip-rule="evenodd" d="M91.2372 61.7197L90.0308 60.0824C87.4457 56.5495 82.534 55.8601 79.0011 58.4452C75.4681 61.0303 74.7787 65.942 77.3638 69.475L78.5702 71.1122C81.1553 74.6452 86.067 75.3346 89.6 72.7495C93.0468 70.0782 93.8223 65.1665 91.2372 61.7197Z" fill="#F49000"/>
<path fill-rule="evenodd" clip-rule="evenodd" d="M75.2096 70.1643C72.9691 65.8558 74.2617 60.5133 78.2255 57.4973C82.1894 54.5675 87.7043 54.9122 91.1511 58.2729L91.4096 58.5314L88.4798 62.8399L75.2957 70.4229L75.2096 70.1643Z" fill="#FFC200"/>
<path fill-rule="evenodd" clip-rule="evenodd" d="M78.9149 62.7537C78.484 62.8399 78.0532 62.7537 77.7085 62.5814C77.0191 62.1505 76.933 61.2027 77.3638 60.5995C78.484 59.0484 79.9489 57.9282 81.7585 57.325C82.534 57.0665 83.3096 57.4973 83.5681 58.2729C83.8266 59.0484 83.3957 59.8239 82.6202 60.0824C81.4138 60.5133 80.3798 61.2027 79.6904 62.2367C79.5181 62.4952 79.2596 62.6676 78.9149 62.7537Z" fill="#FFDE00"/>
<mask id="mask0_1_314" style="mask-type:luminance" maskUnits="userSpaceOnUse" x="62" y="3" width="103" height="103">
<path d="M119.734 4.97337L125.539 10.0414C126.299 10.7024 127.304 11.0096 128.304 10.8868L135.949 9.93015C139.276 9.51195 142.439 11.4875 143.523 14.6605L146.015 21.9514C146.343 22.9038 147.06 23.6724 147.987 24.0659L155.086 27.0603C158.176 28.3624 159.927 31.6562 159.277 34.9459L157.791 42.5058C157.596 43.4918 157.831 44.514 158.436 45.3166L163.088 51.4614C165.11 54.1337 164.98 57.8574 162.777 60.3822L157.707 66.1874C157.044 66.9467 156.737 67.9527 156.863 68.9525L157.818 76.5976C158.237 79.9246 156.261 83.0883 153.088 84.1718L145.797 86.6636C144.845 86.9906 144.077 87.7056 143.682 88.6313L140.688 95.7348C139.386 98.8249 136.092 100.575 132.802 99.9252L125.242 98.4396C124.254 98.2441 123.229 98.48 122.425 99.088L116.282 103.741C113.61 105.762 109.887 105.632 107.362 103.429L101.559 98.3551C100.799 97.6926 99.7934 97.3857 98.7936 97.5118L91.1485 98.4664C87.8215 98.8855 84.6577 96.9096 83.5743 93.7361L81.0888 86.4454C80.7609 85.493 80.0442 84.7244 79.1169 84.3309L72.0176 81.3365C68.928 80.0338 67.1779 76.7404 67.8272 73.4509L69.3148 65.891C69.5071 64.9022 69.2707 63.8783 68.6644 63.0738L64.0134 56.9353C61.9896 54.2638 62.1197 50.5384 64.3249 48.0146L69.393 42.2072C70.054 41.447 70.3613 40.442 70.2384 39.4421L69.2818 31.797C68.8636 28.4701 70.8391 25.3069 74.0121 24.2228L81.3028 21.7373C82.2552 21.4094 83.0238 20.6926 83.4173 19.7654L86.4117 12.6661C87.7144 9.57645 91.0078 7.82638 94.2973 8.47564L101.857 9.96329C102.844 10.1536 103.865 9.91722 104.668 9.31261L110.813 4.66185C113.484 2.63808 117.21 2.76818 119.734 4.97337Z" fill="url(#paint0_linear_1_314)"/>
</mask>
<g mask="url(#mask0_1_314)">
<path fill-rule="evenodd" clip-rule="evenodd" d="M60.8036 103.385L162.736 106.944L166.296 5.01156L64.3631 1.452L60.8036 103.385Z" fill="url(#paint1_linear_1_314)"/>
</g>
<path fill-rule="evenodd" clip-rule="evenodd" d="M133.5 48.0602C137.054 56.749 133.935 66.7375 126.068 71.8596C118.201 76.9818 107.805 75.7935 101.296 69.0283C94.0507 71.3585 86.1913 68.8669 81.7112 62.9268C81.2649 62.334 81.1293 61.5634 81.3465 60.8538C81.5637 60.1443 82.1074 59.5816 82.8091 59.3402L92.4169 56.0299L87.8513 49.0033C86.6453 47.1469 86.45 44.8096 87.3312 42.7788C88.2124 40.748 90.0529 39.2941 92.2326 38.9069C97.6838 37.9426 101.205 36.9458 102.796 35.9165C104.386 34.8871 106.689 32.1221 109.703 27.6214C110.938 25.7811 113.015 24.6843 115.231 24.7019C117.447 24.7195 119.506 25.8492 120.711 27.7088L125.233 34.6731L132.056 27.3561C132.562 26.8129 133.298 26.5449 134.035 26.6352C134.772 26.7255 135.421 27.1632 135.78 27.8125C139.356 34.2731 138.476 42.3938 133.5 48.0602ZM115.404 79.8833L110.351 78.9873C108.592 78.7069 106.934 79.8904 106.627 81.6448C106.321 83.3993 107.479 85.0749 109.229 85.4074L114.285 86.3014C116.044 86.5819 117.702 85.3985 118.009 83.6439C118.315 81.8893 117.156 80.2137 115.407 79.8813L115.404 79.8833ZM142.882 58.0536C142.044 57.8434 141.157 57.9755 140.417 58.4206C139.676 58.8657 139.143 59.5872 138.936 60.4259L137.697 65.4027C137.318 67.1253 138.377 68.8373 140.088 69.2657C141.8 69.6941 143.541 68.6834 144.018 66.9851L145.254 62.0082C145.691 60.2612 144.629 58.4908 142.882 58.0536Z" fill="white"/>
<path fill-rule="evenodd" clip-rule="evenodd" d="M98.9926 53.3612L36.6915 98.6005C33.3309 101.013 33.3309 106.011 36.6915 108.424C52.7192 120.057 74.7787 120.143 91.2373 108.165C107.696 96.1877 114.417 75.2484 108.299 56.3771C107.006 52.4995 102.267 50.9484 98.9926 53.3612Z" fill="#58CC02"/>
<path fill-rule="evenodd" clip-rule="evenodd" d="M133.547 25.0973L145.955 15.7048C148.627 13.7229 152.418 14.2399 154.4 16.9112L161.638 26.5622C163.62 29.2335 163.103 33.025 160.432 35.0069L156.899 37.6782C152.073 41.2973 145.352 40.9526 140.957 36.7303L133.202 29.3197C132.082 28.2856 131.996 26.476 133.116 25.3558C133.288 25.2697 133.374 25.1835 133.547 25.0973Z" fill="#58CC02"/>
</g>
<defs>
<linearGradient id="paint0_linear_1_314" x1="1606.98" y1="1655.77" x2="8359.4" y2="8896.56" gradientUnits="userSpaceOnUse">
<stop stop-color="#FFC100"/>
<stop offset="1" stop-color="#FFA300"/>
</linearGradient>
<linearGradient id="paint1_linear_1_314" x1="1606.97" y1="1655.69" x2="8359.07" y2="8896.43" gradientUnits="userSpaceOnUse">
<stop stop-color="#FFC100"/>
<stop offset="1" stop-color="#FFA300"/>
</linearGradient>
<clipPath id="clip0_1_314">
<rect width="167.17" height="162" fill="white" transform="translate(0.5 0.625)"/>
</clipPath>
</defs>
</svg>
