<svg width="186" height="163" viewBox="0 0 186 163" fill="none" xmlns="http://www.w3.org/2000/svg">
<g clip-path="url(#clip0_1_246)">
<mask id="mask0_1_246" style="mask-type:alpha" maskUnits="userSpaceOnUse" x="78" y="4" width="104" height="89">
<path d="M181.273 4.56677H78.0277V92.1197H181.273V4.56677Z" fill="white"/>
</mask>
<g mask="url(#mask0_1_246)">
<path d="M174.303 -1.77222H84.997C81.1477 -1.77222 78.0277 1.34812 78.0277 5.19723V78.8112C78.0277 82.6605 81.1477 85.7805 84.997 85.7805H174.303C178.152 85.7805 181.273 82.6601 181.273 78.8112V5.19723C181.273 1.34811 178.152 -1.77222 174.303 -1.77222Z" fill="#F7F7F7"/>
<path d="M103.359 71.7176C144.823 71.7176 155.245 38.2947 159.844 23.1886" stroke="#B5E2F7" stroke-width="1.94466" stroke-linecap="round" stroke-linejoin="round"/>
<path fill-rule="evenodd" clip-rule="evenodd" d="M156.386 24.0659C155.971 23.9547 155.724 23.528 155.836 23.1129C155.871 22.9791 155.942 22.8574 156.041 22.7602L160.56 18.31C160.867 18.0082 161.36 18.0116 161.662 18.3175C161.756 18.4122 161.823 18.5291 161.859 18.6573L163.543 24.7669C163.657 25.1812 163.414 25.6096 162.998 25.7238C162.865 25.7606 162.724 25.7611 162.59 25.7253" fill="#B5E2F7"/>
<path d="M96.6245 74.8659H167.146C167.577 74.8659 167.925 75.2146 167.925 75.6445C167.925 76.0739 167.577 76.4226 167.146 76.4226H95.8451C95.4148 76.4226 95.0662 76.0739 95.0662 75.6445V16.0582C95.0662 15.6283 95.4148 15.2799 95.8451 15.2799C96.2754 15.2799 96.6245 15.6283 96.6245 16.0582V74.8659Z" fill="#E5E5E5"/>
</g>
<path d="M181.994 0.875H77.5798C75.6432 0.875 74.073 2.44295 74.073 4.37712V5.15535C74.073 7.08952 75.6432 8.65747 77.5798 8.65747H181.994C183.93 8.65747 185.5 7.08952 185.5 5.15535V4.37712C185.5 2.44295 183.93 0.875 181.994 0.875Z" fill="#1CB0F6"/>
<path d="M47.7488 132.891C47.7488 130.941 46.1745 129.432 44.2859 129.432H38.871C36.9822 129.432 35.4081 131.004 35.4081 132.891C35.4081 134.84 36.9822 136.35 38.871 136.35H44.2859C46.1745 136.412 47.7488 134.84 47.7488 132.891Z" fill="#F49000"/>
<path d="M61.7896 136.35C63.4898 136.35 64.9378 135.155 65.1897 133.457C65.5043 131.57 64.245 129.747 62.3565 129.432C61.9787 129.37 61.4749 128.929 60.908 128.237C59.7119 126.728 57.5711 126.414 55.9971 127.609C54.486 128.804 54.1713 130.941 55.3675 132.514C57.0673 134.652 59.0195 135.973 61.1599 136.287C61.4118 136.35 61.6009 136.35 61.7896 136.35Z" fill="#F49000"/>
<path d="M5.69024 112.768L29.8676 80.5714C31.1898 78.8736 33.7712 78.8736 35.0304 80.6346C41.0118 89.1237 40.8229 100.631 34.4008 109.184C27.9787 117.736 16.9604 121.069 7.13837 117.673C5.12355 116.982 4.36803 114.529 5.69024 112.768Z" fill="#4B4B4B"/>
<path fill-rule="evenodd" clip-rule="evenodd" d="M7.45378 110.379L13.9388 118.931C11.6722 118.868 9.40559 118.428 7.13895 117.673C5.12417 116.982 4.36863 114.466 5.62786 112.768L7.45378 110.379Z" fill="#58CC02"/>
<path d="M47.3714 95.5384L82.1892 75.0378C84.0782 73.9061 86.4709 74.9751 86.9114 77.113C89.1782 87.2376 84.5819 97.865 75.3893 103.336C66.1971 108.807 54.6751 107.675 46.8677 100.758C45.2306 99.2482 45.4825 96.6701 47.3714 95.5384Z" fill="#4B4B4B"/>
<path d="M78.8875 82.7939L108.277 49.087" stroke="#A56644" stroke-width="2.00674" stroke-linecap="round"/>
<path d="M52.7861 59.568C46.5531 63.9699 42.1459 66.4224 39.5643 66.9885C37.0458 67.5546 32.0718 67.0513 24.7052 65.6049C19.7943 64.6619 15.0721 67.806 14.1277 72.7108C13.8758 73.9057 13.8758 75.1634 14.1277 76.2955L19.9831 103.776C23.0683 118.302 37.3606 127.609 51.905 124.528C66.449 121.446 75.7043 107.172 72.6192 92.5825L66.7636 65.0392C65.7566 60.1341 60.9084 57.0527 56.0603 58.0589C54.8641 58.3735 53.7935 58.8136 52.7861 59.568Z" fill="#58CC02"/>
<path d="M34.7788 73.2769L26.7826 67.4286C26.279 67.0513 25.5234 67.3031 25.3345 67.8688C24.8308 69.3783 24.8938 70.9502 25.3975 72.3966L22.6901 70.5101C22.1864 70.1327 21.4309 70.3841 21.242 70.9502C20.8013 72.3966 20.8013 73.9689 21.242 75.3521C19.0383 77.8046 18.031 81.2003 18.7235 84.7218L19.9198 90.1927C21.1161 95.9154 26.7826 99.6256 32.5122 98.3679L32.764 98.3048C36.9825 97.4245 40.0676 94.0916 40.949 90.1299C41.7677 89.9412 42.9639 89.6898 44.5378 89.3751C45.2306 89.2496 46.3636 88.9982 47.9379 88.6835C50.3302 91.9537 54.486 93.7142 58.7045 92.8339L59.0191 92.7712C64.7487 91.5763 68.4003 85.9167 67.2042 80.1941L66.0081 74.7232C65.2525 71.2017 62.8598 68.4976 59.8374 67.1772C59.6487 65.7308 59.0822 64.2845 58.0748 63.2155C57.6338 62.7126 56.8782 62.8381 56.5636 63.4042L54.8638 66.2969C54.7378 64.7878 54.1082 63.2782 53.1007 62.1465C52.6602 61.6436 52.0933 61.7064 51.7786 62.2724L46.3636 71.4535C46.3008 71.5163 46.3008 71.579 46.2377 71.6418C43.9081 74.9119 38.9972 75.8554 35.2825 73.717C35.0936 73.4655 34.9677 73.4028 34.7788 73.2769Z" fill="#89E219"/>
<path d="M53.668 70.3214C49.7014 71.1389 47.12 75.1006 48.0015 79.0623L48.9458 83.4014C49.7646 87.489 53.668 90.0044 57.6347 89.1868C61.6013 88.3693 64.1827 84.4076 63.3011 80.4459L62.3569 76.1068C61.5381 72.0192 57.6347 69.5038 53.668 70.3214Z" fill="white"/>
<path d="M53.5425 75.3525C51.6535 75.7294 50.4574 77.6159 50.8352 79.5024L51.6535 83.2127C52.0313 85.0992 53.9203 86.2941 55.8093 85.9167C57.6978 85.5393 58.8944 83.6528 58.5166 81.7663L57.6978 78.0565C57.2573 76.1068 55.4315 74.9119 53.5425 75.3525Z" fill="#4B4B4B"/>
<path d="M51.5145 80.3565C50.2625 80.3565 49.2477 79.3429 49.2477 78.0926C49.2477 76.8423 50.2625 75.8287 51.5145 75.8287C52.7664 75.8287 53.7812 76.8423 53.7812 78.0926C53.7812 79.3429 52.7664 80.3565 51.5145 80.3565Z" fill="white"/>
<path d="M28.2949 75.7294C24.3283 76.547 21.7469 80.5087 22.6283 84.4704L23.5727 88.8095C24.4542 92.8339 28.3578 95.3493 32.3245 94.5322C36.2911 93.7146 38.8725 89.7529 37.991 85.7912L37.0466 81.4521C36.1651 77.4277 32.2615 74.8491 28.2949 75.7294Z" fill="white"/>
<path d="M30.4355 80.2572C28.5467 80.6346 27.3504 82.5211 27.7282 84.4076L28.5467 88.1179C28.9244 90.0044 30.8133 91.1993 32.7022 90.8219C34.591 90.4445 35.7873 88.558 35.4095 86.6715L34.591 82.9613C34.1503 81.012 32.3244 79.8171 30.4355 80.2572Z" fill="#4B4B4B"/>
<path d="M28.476 85.2075C27.2242 85.2075 26.2094 84.1939 26.2094 82.9436C26.2094 81.6934 27.2242 80.6797 28.476 80.6797C29.7278 80.6797 30.7426 81.6934 30.7426 82.9436C30.7426 84.1939 29.7278 85.2075 28.476 85.2075Z" fill="white"/>
<path d="M56.8787 90.8847C58.6417 89.7525 60.7825 88.7463 63.4267 87.9292C64.8751 87.4886 65.7566 85.9795 65.3788 84.4704L64.1823 79.8798C58.2011 81.3889 53.4789 83.6528 50.2047 86.5456L53.7308 90.5073C54.4864 91.4503 55.8716 91.5763 56.8787 90.8847Z" fill="#8EE000"/>
<path d="M36.7943 94.7205L38.5572 89.0609C34.3388 87.7401 29.1129 87.6146 23.0686 88.6208L24.013 94.0289C24.2019 95.1606 25.2723 95.9154 26.4056 95.7895C29.6796 95.3493 32.5129 95.4121 34.9054 95.9154C35.724 96.0409 36.5424 95.538 36.7943 94.7205Z" fill="#8EE000"/>
<path d="M43.0894 83.4014C41.0747 83.8415 39.7525 85.854 40.1932 87.8664L40.4451 89.0609C40.8858 91.0734 42.9007 92.3938 44.9152 91.9536C46.9301 91.5135 48.2521 89.5011 47.8116 87.489L47.5597 86.2941C47.1192 84.2817 45.1043 82.9612 43.0894 83.4014Z" fill="#F49000"/>
<path d="M49.0709 86.2313C48.1266 84.0302 45.608 82.8353 43.0894 83.4014C40.6969 83.9047 38.934 86.0427 38.9969 88.3693L39.0599 88.558C39.1229 88.7467 39.1858 88.7467 39.3118 88.7467L44.2228 88.558C44.3487 88.558 44.3487 88.558 44.4119 88.4952L49.0077 86.6715C49.1968 86.6715 49.1968 86.6087 49.1968 86.42L49.0709 86.2313Z" fill="#FFC200"/>
<path d="M42.3966 86.0423C42.5225 86.0423 42.6484 85.9795 42.7744 85.9167C43.3413 85.5394 43.9077 85.4134 44.5374 85.5394C44.9784 85.6021 45.3557 85.3507 45.4189 84.9105C45.4817 84.4704 45.2302 84.093 44.7893 84.0302C43.845 83.8415 42.9003 84.0302 42.0188 84.5963C41.6414 84.7846 41.5782 85.2879 41.7673 85.6021C41.8933 85.9167 42.1447 86.0423 42.3966 86.0423Z" fill="#FFDE00"/>
<path d="M70.1137 88.8849L73.2551 103.647L23.3729 114.236L20.2314 99.4747L70.1137 88.8849Z" fill="white"/>
<path fill-rule="evenodd" clip-rule="evenodd" d="M49.1968 93.3369L41.2006 95.0347C41.5154 96.4183 42.8375 97.2358 44.16 96.9843L47.2451 96.3555C48.6299 96.0409 49.4487 94.7205 49.1968 93.3369Z" fill="#4B4B4B"/>
<path fill-rule="evenodd" clip-rule="evenodd" d="M46.8669 94.469L43.7818 95.0978L43.2153 100.883C43.0262 102.769 44.4115 104.467 46.3632 104.656C46.741 104.719 47.0556 104.656 47.4334 104.593C49.3224 104.216 50.5185 102.329 50.078 100.505C50.0152 100.191 49.8893 99.8139 49.7002 99.4997L46.8669 94.469Z" fill="#4B4B4B"/>
<path fill-rule="evenodd" clip-rule="evenodd" d="M70.8558 81.7036L47.2451 102.392L18.4716 96.3555C18.1568 96.2923 17.779 96.481 17.7161 96.8584C17.7161 96.9216 17.7161 96.9843 17.7161 97.1098L21.6197 123.333C21.8086 124.716 23.1308 125.659 24.453 125.471C24.5159 125.471 24.5159 125.471 24.5789 125.471L72.9966 115.661C74.2559 115.409 75.1374 114.214 75.0115 112.957L71.9264 82.1437C71.8632 81.8291 71.6114 81.5149 71.2336 81.5776C71.1076 81.5776 70.9817 81.6404 70.8558 81.7036Z" fill="#4B4B4B"/>
<path fill-rule="evenodd" clip-rule="evenodd" d="M68.1485 104.656L59.8374 105.977C59.7746 105.977 59.7115 105.977 59.6487 105.977C58.9559 105.977 58.3894 105.411 58.3894 104.719L58.6413 92.4565L69.5337 82.8981C69.5337 82.9608 69.5965 83.024 69.5965 83.0868L69.2818 103.398C69.2187 104.027 68.7781 104.53 68.1485 104.656Z" fill="#1899D6"/>
<path fill-rule="evenodd" clip-rule="evenodd" d="M32.1968 112.831C32.1968 113.46 31.6931 113.963 31.0635 114.026L23.0044 114.843C22.3118 114.906 21.6822 114.403 21.6192 113.711C21.6192 113.648 21.6192 113.586 21.6192 113.586L21.871 97.0471L32.5116 99.2478L32.1968 112.831Z" fill="#1899D6"/>
<path fill-rule="evenodd" clip-rule="evenodd" d="M42.5631 48.541L30.2227 51.1819C29.9079 51.2451 29.656 51.5593 29.719 51.9367L33.1189 67.909C33.1819 68.2236 33.4967 68.4751 33.8745 68.4123L46.2151 65.771C46.5297 65.7083 46.7816 65.3937 46.7188 65.0167L43.3187 49.0439C43.2559 48.7297 42.9409 48.4779 42.5631 48.541Z" fill="#4B4B4B"/>
<path fill-rule="evenodd" clip-rule="evenodd" d="M35.5748 47.4725L26.6343 49.359C26.1305 49.4845 25.8157 49.9878 25.8787 50.4907C26.0046 50.994 26.5083 51.3082 27.012 51.2455L35.9526 49.359C36.4563 49.233 36.7711 48.7301 36.7081 48.2268C36.6452 47.6612 36.1415 47.3465 35.5748 47.4725Z" fill="#FFD900"/>
<path fill-rule="evenodd" clip-rule="evenodd" d="M49.4262 45.837L22.3524 51.5592C21.471 51.7479 20.9672 52.5655 21.1561 53.4458C21.345 54.326 22.1636 54.8294 23.045 54.6407L50.1186 48.9184C51.0001 48.7297 51.5038 47.9122 51.3147 47.0319C51.126 46.2144 50.2445 45.6483 49.4262 45.837Z" fill="#4B4B4B"/>
<path fill-rule="evenodd" clip-rule="evenodd" d="M35.1973 45.6483C34.3159 45.837 33.8122 46.6545 34.001 47.5348L34.2529 48.7925C34.4418 49.6728 35.2603 50.1761 36.1418 49.9874C37.0232 49.7987 37.5269 48.9812 37.338 48.1009L37.0862 46.8432C36.8973 45.9629 36.0788 45.4596 35.1973 45.6483Z" fill="#4B4B4B"/>
<path fill-rule="evenodd" clip-rule="evenodd" d="M26.4551 54.0672C24.8974 53.2907 23.037 53.8887 22.2128 55.4073L19.9566 59.8953C19.8076 60.1796 19.8938 60.573 20.2267 60.7621L24.7136 63.0206C24.9976 63.1695 25.3912 63.0838 25.5798 62.7507L27.8359 58.2627C28.5716 56.7536 28.0128 54.8433 26.4551 54.0672Z" fill="#FFD900"/>
<path d="M24.0997 62.7675L22.9626 62.1715L24.3356 59.479C24.4848 59.1951 24.8693 59.0203 25.2025 59.209C25.4868 59.3579 25.6615 59.7419 25.4727 60.075L24.0997 62.7675Z" fill="#FFC800"/>
<path d="M21.3059 61.3171L23.8328 56.4017C23.982 56.1178 24.3665 55.9435 24.6997 56.1322C24.984 56.2811 25.1587 56.665 24.9699 56.9977L22.4431 61.9131L21.3059 61.3171Z" fill="#FFC800"/>
<path fill-rule="evenodd" clip-rule="evenodd" d="M27.8304 50.2388L25.9415 50.0501L24.6193 55.5214L26.4452 55.9615L27.8304 50.2388Z" fill="#FFD900"/>
<path d="M19.1408 58.917C20.5889 58.917 21.9111 58.0363 23.1074 56.3385C23.2963 56.0243 23.2333 55.6469 22.9814 55.4582C22.6667 55.2695 22.2889 55.3323 22.1 55.5841C21.1556 56.9673 20.1482 57.6593 19.1408 57.6593C18.763 57.6593 18.5112 57.9108 18.5112 58.2882C18.5112 58.6651 18.826 58.917 19.1408 58.917Z" fill="#FFD900"/>
<path fill-rule="evenodd" clip-rule="evenodd" d="M86.3059 72.6816L83.4345 72.5955C82.199 72.5586 81.1674 73.5234 81.13 74.7507C81.1227 74.9944 81.1555 75.238 81.2281 75.4714L83.5391 82.9379C83.8776 84.0302 85.0438 84.6439 86.1439 84.3075C86.9344 84.0663 87.5066 83.3829 87.6014 82.5662L88.4615 75.1584C88.6031 73.9385 87.7224 72.8359 86.4946 72.6952C86.4319 72.6878 86.3687 72.6833 86.3059 72.6816Z" fill="#58CC02"/>
<path d="M84.6157 158.082H23.4052C22.0735 158.082 20.9939 159.161 20.9939 160.493C20.9939 161.825 22.0735 162.904 23.4052 162.904H84.6157C85.9475 162.904 87.027 161.825 87.027 160.493C87.027 159.161 85.9475 158.082 84.6157 158.082Z" fill="#E5E5E5"/>
<path d="M20.9939 148.936V155.312C20.9939 156.842 19.7541 158.082 18.2247 158.082H-16.6122C-18.1416 158.082 -19.3814 156.842 -19.3814 155.312V148.936C-19.3814 147.407 -18.1416 146.167 -16.6122 146.167H18.2247C19.7541 146.167 20.9939 147.407 20.9939 148.936Z" fill="#A560E8"/>
<mask id="mask1_1_246" style="mask-type:alpha" maskUnits="userSpaceOnUse" x="35" y="136" width="41" height="13">
<path d="M75.3807 139.174V145.55C75.3807 147.08 74.1409 148.32 72.6115 148.32H37.7746C36.2452 148.32 35.0054 147.08 35.0054 145.55V139.174C35.0054 137.645 36.2452 136.405 37.7746 136.405H72.6115C74.1409 136.405 75.3807 137.645 75.3807 139.174Z" fill="white"/>
</mask>
<g mask="url(#mask1_1_246)">
<path d="M46.7062 141.904C47.0858 141.904 47.3936 142.212 47.3936 142.592C47.3936 142.971 47.0858 143.279 46.7062 143.279H38.4459C38.0663 143.279 37.7586 142.971 37.7586 142.592C37.7586 142.212 38.0663 141.904 38.4459 141.904H46.7062Z" fill="#B77FEC"/>
<path d="M51.2943 141.904C51.6739 141.904 51.9817 142.212 51.9817 142.592C51.9817 142.971 51.6739 143.279 51.2943 143.279H49.4574C49.0777 143.279 48.77 142.971 48.77 142.592C48.77 142.212 49.0777 141.904 49.4574 141.904H51.2943Z" fill="#B77FEC"/>
<path d="M70.5643 141.904C70.9439 141.904 71.2516 142.212 71.2516 142.591C71.2516 142.971 70.9439 143.279 70.5643 143.279H65.5156C65.136 143.279 64.8283 142.971 64.8283 142.591C64.8283 142.212 65.136 141.904 65.5156 141.904H70.5643Z" fill="#B77FEC"/>
</g>
<path d="M34.9568 128.47V133.472C34.9568 135.001 33.7169 136.241 32.1875 136.241H-14.5785C-16.108 136.241 -17.3478 135.001 -17.3478 133.472V128.47C-17.3478 126.941 -16.108 125.701 -14.5785 125.701H32.1875C33.7169 125.701 34.9568 126.941 34.9568 128.47Z" fill="#00A0F5"/>
<path opacity="0.25" d="M37.9884 147.632V158.172H33.8591V147.632H37.9884Z" fill="white"/>
<path opacity="0.25" d="M74.2346 147.632V158.172H65.5172V147.632H74.2346Z" fill="white"/>
</g>
<defs>
<clipPath id="clip0_1_246">
<rect width="185" height="162.029" fill="white" transform="translate(0.5 0.875)"/>
</clipPath>
</defs>
</svg>
