<svg width="246" height="163" viewBox="0 0 246 163" fill="none" xmlns="http://www.w3.org/2000/svg">
<g clip-path="url(#clip0_1_348)">
<path d="M215.72 0.528568H29.8814C24.5283 0.528568 20.1888 4.86809 20.1888 10.2212V142.287C20.1888 147.64 24.5283 151.979 29.8814 151.979H215.72C221.073 151.979 225.413 147.64 225.413 142.287V10.2212C225.413 4.86809 221.073 0.528568 215.72 0.528568Z" fill="#5C5B5B"/>
<path d="M204.619 13.2064H39.3636C36.6873 13.2064 34.5177 15.376 34.5177 18.0523V134.455C34.5177 137.131 36.6873 139.301 39.3636 139.301H204.619C207.295 139.301 209.465 137.131 209.465 134.455V18.0523C209.465 15.376 207.295 13.2064 204.619 13.2064Z" fill="white"/>
<path d="M184.25 34.1069H183.362C182.382 34.1069 181.587 34.9017 181.587 35.8822V38.5453C181.587 39.5258 182.382 40.3207 183.362 40.3207H184.25C185.231 40.3207 186.025 39.5258 186.025 38.5453V35.8822C186.025 34.9017 185.231 34.1069 184.25 34.1069Z" fill="#78C800"/>
<path d="M184.488 28.7116L189.25 34.4265C189.358 34.5561 189.427 34.7137 189.449 34.881C189.47 35.0483 189.444 35.2183 189.372 35.371C189.301 35.5238 189.187 35.653 189.045 35.7435C188.902 35.8341 188.737 35.8822 188.569 35.8822H179.044C178.875 35.8822 178.71 35.8341 178.568 35.7435C178.425 35.653 178.312 35.5238 178.24 35.371C178.169 35.2183 178.142 35.0483 178.164 34.881C178.185 34.7137 178.254 34.5561 178.362 34.4265L183.124 28.7116C183.208 28.6117 183.312 28.5313 183.43 28.4761C183.548 28.421 183.676 28.3924 183.806 28.3924C183.936 28.3924 184.065 28.421 184.183 28.4761C184.3 28.5313 184.405 28.6117 184.488 28.7116Z" fill="#78C800"/>
<path d="M184.25 72.2772H183.362C182.382 72.2772 181.587 71.4823 181.587 70.5018V67.8388C181.587 66.8583 182.382 66.0634 183.362 66.0634H184.25C185.231 66.0634 186.025 66.8583 186.025 67.8388V70.5018C186.025 71.4823 185.231 72.2772 184.25 72.2772Z" fill="#EA2B2B"/>
<path d="M184.488 77.6725L189.25 71.9576C189.358 71.828 189.427 71.6703 189.449 71.503C189.47 71.3358 189.444 71.1658 189.372 71.013C189.301 70.8603 189.187 70.7311 189.045 70.6405C188.902 70.55 188.737 70.5019 188.569 70.5018H179.044C178.875 70.5019 178.71 70.55 178.568 70.6405C178.425 70.7311 178.312 70.8603 178.24 71.013C178.169 71.1658 178.142 71.3358 178.164 71.503C178.185 71.6703 178.254 71.828 178.362 71.9576L183.124 77.6725C183.208 77.7724 183.312 77.8528 183.43 77.9079C183.548 77.9631 183.676 77.9917 183.806 77.9917C183.936 77.9917 184.065 77.9631 184.183 77.9079C184.3 77.8528 184.405 77.7724 184.488 77.6725Z" fill="#EA2B2B"/>
<path d="M184.25 111.335H183.362C182.382 111.335 181.587 112.13 181.587 113.111V115.774C181.587 116.754 182.382 117.549 183.362 117.549H184.25C185.231 117.549 186.025 116.754 186.025 115.774V113.111C186.025 112.13 185.231 111.335 184.25 111.335Z" fill="#78C800"/>
<path d="M184.488 105.94L189.25 111.655C189.358 111.784 189.427 111.942 189.449 112.109C189.47 112.277 189.444 112.447 189.372 112.599C189.301 112.752 189.187 112.881 189.045 112.972C188.902 113.062 188.737 113.11 188.569 113.111H179.044C178.875 113.11 178.71 113.062 178.568 112.972C178.425 112.881 178.312 112.752 178.24 112.599C178.169 112.447 178.142 112.277 178.164 112.109C178.185 111.942 178.254 111.784 178.362 111.655L183.124 105.94C183.208 105.84 183.312 105.76 183.43 105.704C183.548 105.649 183.676 105.621 183.806 105.621C183.936 105.621 184.065 105.649 184.183 105.704C184.3 105.76 184.405 105.84 184.488 105.94Z" fill="#78C800"/>
<path d="M65.3469 26.1178C66.7708 26.1179 68.1581 26.5695 69.3092 27.4076C70.4603 28.2458 71.316 29.4274 71.7533 30.7825L75.7283 43.0982C75.8754 43.5543 75.9125 44.0387 75.8368 44.5119C75.761 44.9851 75.5744 45.4337 75.2923 45.8211C75.0101 46.2085 74.6404 46.5236 74.2133 46.7409C73.7862 46.9582 73.3137 47.0715 72.8345 47.0715H57.6827C57.2012 47.0714 56.7266 46.957 56.298 46.7377C55.8693 46.5184 55.4989 46.2004 55.2172 45.8099C54.9355 45.4195 54.7506 44.9677 54.6777 44.4917C54.6047 44.0158 54.6459 43.5294 54.7977 43.0725L58.8961 30.7692C59.3469 29.4148 60.2126 28.2367 61.3704 27.4019C62.5283 26.567 63.9195 26.1177 65.3469 26.1178Z" fill="#2D2D2D"/>
<path d="M72.9428 39.4543C74.3601 39.4543 75.5091 38.264 75.5091 36.7957C75.5091 35.3274 74.3601 34.1371 72.9428 34.1371C71.5255 34.1371 70.3765 35.3274 70.3765 36.7957C70.3765 38.264 71.5255 39.4543 72.9428 39.4543Z" fill="#8B4824"/>
<path d="M57.5752 39.4543C58.9925 39.4543 60.1415 38.264 60.1415 36.7957C60.1415 35.3274 58.9925 34.1371 57.5752 34.1371C56.1579 34.1371 55.0089 35.3274 55.0089 36.7957C55.0089 38.264 56.1579 39.4543 57.5752 39.4543Z" fill="#8B4824"/>
<path d="M65.259 27.6703C67.0137 27.6703 68.6964 28.3673 69.9372 29.6081C71.1779 30.8488 71.8749 32.5316 71.8749 34.2862V38.6447C71.8749 39.5135 71.7038 40.3738 71.3713 41.1765C71.0388 41.9792 70.5515 42.7085 69.9372 43.3229C69.3228 43.9372 68.5935 44.4245 67.7908 44.757C66.9881 45.0895 66.1278 45.2606 65.259 45.2606C64.3902 45.2606 63.5299 45.0895 62.7272 44.757C61.9245 44.4245 61.1952 43.9372 60.5809 43.3229C59.9665 42.7085 59.4792 41.9792 59.1467 41.1765C58.8143 40.3738 58.6431 39.5135 58.6431 38.6447V34.2862C58.6431 32.5316 59.3402 30.8488 60.5809 29.6081C61.8216 28.3673 63.5044 27.6703 65.259 27.6703Z" fill="#A56644"/>
<path d="M67.1764 39.2057C66.1227 39.0797 65.3549 38.9252 64.88 38.7459C64.406 38.5666 63.7544 38.184 62.9324 37.5999L62.6918 37.4286L62.4753 38.0473C62.2509 38.6887 62.2859 39.3924 62.573 40.0083C62.86 40.6241 63.3764 41.1035 64.0118 41.3442C64.3175 41.4598 64.6429 41.5142 64.9696 41.5041C65.2962 41.494 65.6177 41.4196 65.9156 41.2852C66.2135 41.1509 66.482 40.9591 66.7058 40.721C66.9296 40.4828 67.1043 40.2029 67.2199 39.8972L67.2412 39.8395L67.4516 39.2386L67.1764 39.2057Z" fill="white" stroke="white" stroke-width="0.443841" stroke-linecap="round" stroke-linejoin="round"/>
<path d="M69.1408 27.3614L68.0934 29.7777C67.532 31.0726 66.6043 32.1752 65.4245 32.9498C64.2446 33.7243 62.864 34.137 61.4526 34.1371H57.6445L58.7665 30.7781C59.2196 29.4209 60.088 28.2407 61.2489 27.4043C62.4098 26.568 63.8043 26.1179 65.235 26.1178C66.6704 26.1178 68.0259 26.5705 69.1408 27.3614Z" fill="#2D2D2D"/>
<path d="M57.4004 76.0063C56.2282 76.0063 55.2779 75.0219 55.2779 73.8075C55.2779 72.5932 56.2282 71.6087 57.4004 71.6087C58.5725 71.6087 59.5228 72.5932 59.5228 73.8075C59.5228 75.0219 58.5725 76.0063 57.4004 76.0063Z" fill="#CD7C60"/>
<path d="M65.0087 65.6586C63.1879 65.6586 61.4416 66.3819 60.1541 67.6694C58.8667 68.9569 58.1433 70.7032 58.1433 72.524V76.1253C58.1433 77.0269 58.3209 77.9197 58.666 78.7527C59.011 79.5857 59.5167 80.3426 60.1543 80.9801C60.7918 81.6177 61.5487 82.1234 62.3817 82.4684C63.2147 82.8135 64.1075 82.9911 65.0091 82.9911C65.9107 82.9911 66.8035 82.8135 67.6365 82.4684C68.4695 82.1234 69.2264 81.6177 69.8639 80.9801C70.5015 80.3426 71.0072 79.5857 71.3523 78.7527C71.6973 77.9197 71.8749 77.0269 71.8749 76.1253V72.524C71.8749 71.6223 71.6973 70.7295 71.3522 69.8965C71.0071 69.0635 70.5014 68.3066 69.8638 67.6691C69.2262 67.0316 68.4692 66.5259 67.6362 66.181C66.8031 65.836 65.9103 65.6585 65.0087 65.6586Z" fill="#DB8E73"/>
<path d="M66.1325 74.713H64.1352V75.748H66.1325V74.713Z" fill="#B4654A"/>
<path d="M60.889 72.5799C60.889 71.6146 61.6715 70.832 62.6368 70.832C63.6021 70.832 64.3846 71.6146 64.3846 72.5799V74.5168C64.3846 75.4821 63.6021 76.2646 62.6368 76.2646C61.6715 76.2646 60.889 75.4821 60.889 74.5168V72.5799Z" fill="white"/>
<path d="M62.137 72.8746C62.137 72.4608 62.4725 72.1254 62.8862 72.1254C63.3 72.1254 63.6354 72.4608 63.6354 72.8746V74.2221C63.6354 74.6359 63.3 74.9713 62.8862 74.9713C62.4725 74.9713 62.137 74.6359 62.137 74.2221V72.8746Z" fill="#4B4B4B"/>
<path d="M69.3787 72.5799C69.3787 71.6146 68.5962 70.832 67.6309 70.832C66.6656 70.832 65.8831 71.6146 65.8831 72.5799V74.5168C65.8831 75.4821 66.6656 76.2646 67.6309 76.2646C68.5962 76.2646 69.3787 75.4821 69.3787 74.5168V72.5799Z" fill="white"/>
<path d="M68.1298 72.8746C68.1298 72.4608 67.7943 72.1254 67.3806 72.1254C66.9668 72.1254 66.6313 72.4608 66.6313 72.8746V74.2221C66.6313 74.6359 66.9668 74.9713 67.3806 74.9713C67.7943 74.9713 68.1298 74.6359 68.1298 74.2221V72.8746Z" fill="#4B4B4B"/>
<path d="M62.1379 79.6281C60.6211 79.6281 59.3914 78.3539 59.3914 76.7822C59.3914 75.2104 60.6211 73.9362 62.1379 73.9362C63.6548 73.9362 64.8844 75.2104 64.8844 76.7822C64.8844 78.3539 63.6548 79.6281 62.1379 79.6281Z" fill="#DB8E73"/>
<path d="M68.1298 79.6281C66.6129 79.6281 65.3833 78.3539 65.3833 76.7822C65.3833 75.2104 66.6129 73.9362 68.1298 73.9362C69.6466 73.9362 70.8763 75.2104 70.8763 76.7822C70.8763 78.3539 69.6466 79.6281 68.1298 79.6281Z" fill="#DB8E73"/>
<path d="M65.7579 75.9034V73.0042C65.7579 72.8055 65.6789 72.6149 65.5384 72.4744C65.3979 72.3339 65.2074 72.255 65.0087 72.255C64.81 72.255 64.6194 72.3339 64.4789 72.4744C64.3384 72.6149 64.2595 72.8055 64.2595 73.0042V75.9034C64.2595 76.1021 64.3384 76.2926 64.4789 76.4331C64.6194 76.5736 64.81 76.6526 65.0087 76.6526C65.2074 76.6526 65.3979 76.5736 65.5384 76.4331C65.6789 76.2926 65.7579 76.1021 65.7579 75.9034Z" fill="#B4654A"/>
<path d="M64.6705 77.0405H65.3478C65.9194 77.0405 66.3819 76.578 66.3819 76.0072V76.0054C66.3819 75.4338 65.9194 74.9713 65.3478 74.9713H64.6696C64.0988 74.9713 63.6354 75.4338 63.6354 76.0054V76.0072C63.6354 76.578 64.0997 77.0405 64.6705 77.0405Z" fill="#B4654A"/>
<path d="M60.8153 65.6489C64.0518 63.293 68.5283 63.5468 71.6281 66.3395C74.7288 69.1321 75.5943 73.6895 73.7932 77.3387C73.7575 77.4118 73.7052 77.4755 73.6404 77.5246C73.5756 77.5738 73.5002 77.607 73.4203 77.6217C73.3403 77.6364 73.258 77.6321 73.18 77.6091C73.102 77.5862 73.0305 77.5453 72.9712 77.4896L60.7851 66.5144C60.5214 66.2765 60.5365 65.8521 60.8153 65.6489Z" fill="#FFD900"/>
<path d="M65.1924 77.8909C64.4592 77.7994 63.9257 77.6894 63.5972 77.566C63.2706 77.4426 62.8161 77.1807 62.2426 76.7795L62.003 76.6126L61.8405 77.0742C61.6771 77.5398 61.7023 78.0509 61.9108 78.4981C62.1194 78.9454 62.4946 79.2933 62.9563 79.4674C63.1795 79.5515 63.417 79.5908 63.6553 79.5831C63.8936 79.5754 64.128 79.5208 64.3452 79.4224C64.5624 79.3241 64.7581 79.1839 64.9212 79.0099C65.0842 78.8359 65.2114 78.6315 65.2954 78.4084L65.3096 78.3702L65.4658 77.9246L65.1924 77.8909Z" fill="white" stroke="white" stroke-width="0.443841" stroke-linecap="round" stroke-linejoin="round"/>
<path d="M61.7225 70.1787C60.0004 69.7499 58.7674 68.1557 58.7674 66.3049C58.7674 64.454 60.0013 62.8598 61.7234 62.4319C61.7585 62.4238 61.7951 62.4238 61.8303 62.432C61.8654 62.4401 61.8983 62.4562 61.9263 62.479C61.9543 62.5018 61.9767 62.5306 61.9918 62.5634C62.007 62.5962 62.0144 62.6319 62.0136 62.668V69.9426C62.0136 70.0997 61.8716 70.2151 61.7234 70.1787H61.7225Z" fill="#FFD900"/>
<path d="M58.0315 76.0063C56.8593 76.0063 55.909 75.0219 55.909 73.8075C55.909 72.5932 56.8593 71.6087 58.0315 71.6087C59.2037 71.6087 60.1539 72.5932 60.1539 73.8075C60.1539 75.0219 59.2037 76.0063 58.0315 76.0063Z" fill="#CD7C60"/>
<path d="M65.0087 65.6586C63.1879 65.6586 61.4416 66.3819 60.1541 67.6694C58.8667 68.9569 58.1433 70.7032 58.1433 72.524V76.6428C58.1433 78.4637 58.8667 80.21 60.1543 81.4976C61.4419 82.7852 63.1882 83.5086 65.0091 83.5086C66.83 83.5086 68.5764 82.7852 69.8639 81.4976C71.1515 80.21 71.8749 78.4637 71.8749 76.6428V72.524C71.8749 71.6223 71.6973 70.7295 71.3522 69.8965C71.0071 69.0635 70.5014 68.3066 69.8638 67.6691C69.2262 67.0316 68.4692 66.5259 67.6362 66.181C66.8031 65.836 65.9103 65.6585 65.0087 65.6586Z" fill="#DB8E73"/>
<path d="M62.1379 79.6281C60.6211 79.6281 59.3914 78.3539 59.3914 76.7822C59.3914 75.2104 60.6211 73.9362 62.1379 73.9362C63.6548 73.9362 64.8844 75.2104 64.8844 76.7822C64.8844 78.3539 63.6548 79.6281 62.1379 79.6281Z" fill="#DB8E73"/>
<path d="M68.1298 79.6281C66.6129 79.6281 65.3833 78.3539 65.3833 76.7822C65.3833 75.2104 66.6129 73.9362 68.1298 73.9362C69.6466 73.9362 70.8763 75.2104 70.8763 76.7822C70.8763 78.3539 69.6466 79.6281 68.1298 79.6281Z" fill="#DB8E73"/>
<path d="M62.762 78.2548C63.0577 78.5659 63.4137 78.8136 63.8081 78.9828C64.2026 79.1521 64.6274 79.2394 65.0566 79.2394C65.4859 79.2394 65.9106 79.1521 66.3051 78.9828C66.6996 78.8136 67.0555 78.5659 67.3513 78.2548" stroke="#B4654A" stroke-width="1.29246" stroke-linecap="round"/>
<path d="M60.0909 64.9361C63.5431 62.4097 68.2993 62.6547 71.5793 65.6098C74.8593 68.564 75.7558 73.4099 73.8216 77.3032C73.784 77.3811 73.7288 77.4491 73.6602 77.5017C73.5916 77.5544 73.5116 77.5902 73.4267 77.6064C73.3417 77.6225 73.2542 77.6185 73.1711 77.5947C73.088 77.5709 73.0116 77.5279 72.9481 77.4692L60.0545 65.8557C59.9891 65.797 59.9374 65.7246 59.9032 65.6436C59.8689 65.5627 59.853 65.4751 59.8565 65.3873C59.8599 65.2995 59.8827 65.2135 59.9233 65.1355C59.9638 65.0575 60.0211 64.9894 60.0909 64.9361Z" fill="#FFD900"/>
<path d="M73.0537 115.172C74.4711 115.172 75.62 113.981 75.62 112.513C75.62 111.045 74.4711 109.854 73.0537 109.854C71.6364 109.854 70.4875 111.045 70.4875 112.513C70.4875 113.981 71.6364 115.172 73.0537 115.172Z" fill="#A0563C"/>
<path d="M57.2148 115.172C58.6322 115.172 59.7811 113.981 59.7811 112.513C59.7811 111.045 58.6322 109.854 57.2148 109.854C55.7975 109.854 54.6486 111.045 54.6486 112.513C54.6486 113.981 55.7975 115.172 57.2148 115.172Z" fill="#A0563C"/>
<path d="M59.9622 100.024H70.3064C70.578 100.024 70.8469 100.078 71.0979 100.182C71.3488 100.286 71.5768 100.438 71.7689 100.63C71.9609 100.822 72.1133 101.05 72.2172 101.301C72.3212 101.552 72.3747 101.821 72.3747 102.093V109.596H57.8939V102.093C57.8939 101.544 58.1118 101.018 58.4997 100.63C58.8876 100.242 59.4137 100.024 59.9622 100.024Z" fill="#3D3D3D"/>
<path d="M69.2722 105.457H60.9964C60.589 105.457 60.1856 105.537 59.8092 105.693C59.4328 105.849 59.0908 106.077 58.8027 106.365C58.5146 106.653 58.286 106.995 58.1301 107.371C57.9742 107.748 57.8939 108.151 57.8939 108.558V114.129C57.8939 116.014 58.6429 117.822 59.976 119.155C61.3091 120.488 63.1172 121.237 65.0025 121.237H65.2661C67.1514 121.237 68.9595 120.488 70.2926 119.155C71.6257 117.822 72.3747 116.014 72.3747 114.129V108.558C72.3747 108.151 72.2944 107.748 72.1385 107.371C71.9826 106.995 71.754 106.653 71.4659 106.365C71.1778 106.077 70.8358 105.849 70.4594 105.693C70.083 105.537 69.6796 105.457 69.2722 105.457Z" fill="#C6775C"/>
<path d="M67.1737 115.262C66.1201 115.137 65.3522 114.983 64.8773 114.802C64.4033 114.623 63.7517 114.241 62.9297 113.657L62.6901 113.486L62.4735 114.104C62.249 114.745 62.284 115.449 62.5709 116.065C62.8577 116.68 63.3738 117.16 64.0092 117.401C64.3147 117.516 64.6401 117.571 64.9667 117.561C65.2934 117.551 65.6148 117.476 65.9127 117.342C66.2106 117.208 66.4791 117.016 66.703 116.778C66.9268 116.54 67.1015 116.26 67.2172 115.955L67.2385 115.896L67.4489 115.295L67.1737 115.262Z" fill="white" stroke="white" stroke-width="0.443841" stroke-linecap="round" stroke-linejoin="round"/>
<path d="M2.11558 147.384H243.485C243.697 147.384 243.907 147.426 244.103 147.507C244.3 147.588 244.478 147.707 244.628 147.857C244.778 148.007 244.897 148.186 244.978 148.382C245.059 148.578 245.101 148.788 245.101 149V154.658C245.101 158.676 241.846 161.933 237.83 161.933H7.77011C3.75513 161.933 0.5 158.675 0.5 154.658V149C0.499884 148.788 0.541586 148.578 0.622724 148.382C0.703862 148.186 0.822847 148.007 0.972879 147.857C1.12291 147.707 1.30105 147.588 1.49712 147.507C1.69319 147.426 1.90334 147.384 2.11558 147.384Z" fill="#C1C9CB"/>
<path opacity="0.25" d="M272.13 -19.154V115.294L43.9964 -19.154H272.13Z" fill="white"/>
<path d="M98.0011 40.7476L108.631 33.3834L119.26 41.369L129.89 28.337L140.519 37.8351L151.149 31.4438" stroke="#FFC800" stroke-width="1.77536"/>
<path d="M107.466 36.7699C108.691 36.7699 109.685 35.7764 109.685 34.5507C109.685 33.3251 108.691 32.3315 107.466 32.3315C106.24 32.3315 105.246 33.3251 105.246 34.5507C105.246 35.7764 106.24 36.7699 107.466 36.7699Z" fill="white" stroke="#FFC800" stroke-width="1.77536"/>
<path d="M95.9257 42.9837C97.1513 42.9837 98.1449 41.9901 98.1449 40.7645C98.1449 39.5389 97.1513 38.5453 95.9257 38.5453C94.7001 38.5453 93.7065 39.5389 93.7065 40.7645C93.7065 41.9901 94.7001 42.9837 95.9257 42.9837Z" fill="white" stroke="#FFC800" stroke-width="1.77536"/>
<path d="M118.118 43.8714C119.343 43.8714 120.337 42.8778 120.337 41.6522C120.337 40.4265 119.343 39.433 118.118 39.433C116.892 39.433 115.899 40.4265 115.899 41.6522C115.899 42.8778 116.892 43.8714 118.118 43.8714Z" fill="white" stroke="#FFC800" stroke-width="1.77536"/>
<path d="M129.658 31.4438C130.883 31.4438 131.877 30.4503 131.877 29.2246C131.877 27.999 130.883 27.0054 129.658 27.0054C128.432 27.0054 127.438 27.999 127.438 29.2246C127.438 30.4503 128.432 31.4438 129.658 31.4438Z" fill="white" stroke="#FFC800" stroke-width="1.77536"/>
<path d="M140.31 40.3207C141.535 40.3207 142.529 39.3271 142.529 38.1015C142.529 36.8758 141.535 35.8822 140.31 35.8822C139.084 35.8822 138.091 36.8758 138.091 38.1015C138.091 39.3271 139.084 40.3207 140.31 40.3207Z" fill="white" stroke="#FFC800" stroke-width="1.77536"/>
<path d="M151.85 33.2192C153.075 33.2192 154.069 32.2256 154.069 31C154.069 29.7744 153.075 28.7808 151.85 28.7808C150.624 28.7808 149.63 29.7744 149.63 31C149.63 32.2256 150.624 33.2192 151.85 33.2192Z" fill="white" stroke="#FFC800" stroke-width="1.77536"/>
<path d="M98.0011 114.425L108.631 107.061L119.26 115.047L129.89 102.014L140.519 111.513L151.149 105.121" stroke="#FFC800" stroke-width="1.77536"/>
<path d="M107.466 110.447C108.691 110.447 109.685 109.454 109.685 108.228C109.685 107.003 108.691 106.009 107.466 106.009C106.24 106.009 105.246 107.003 105.246 108.228C105.246 109.454 106.24 110.447 107.466 110.447Z" fill="white" stroke="#FFC800" stroke-width="1.77536"/>
<path d="M95.9257 116.661C97.1513 116.661 98.1449 115.668 98.1449 114.442C98.1449 113.216 97.1513 112.223 95.9257 112.223C94.7001 112.223 93.7065 113.216 93.7065 114.442C93.7065 115.668 94.7001 116.661 95.9257 116.661Z" fill="white" stroke="#FFC800" stroke-width="1.77536"/>
<path d="M118.118 117.549C119.343 117.549 120.337 116.555 120.337 115.33C120.337 114.104 119.343 113.111 118.118 113.111C116.892 113.111 115.899 114.104 115.899 115.33C115.899 116.555 116.892 117.549 118.118 117.549Z" fill="white" stroke="#FFC800" stroke-width="1.77536"/>
<path d="M129.658 105.121C130.883 105.121 131.877 104.128 131.877 102.902C131.877 101.677 130.883 100.683 129.658 100.683C128.432 100.683 127.438 101.677 127.438 102.902C127.438 104.128 128.432 105.121 129.658 105.121Z" fill="white" stroke="#FFC800" stroke-width="1.77536"/>
<path d="M140.31 113.998C141.535 113.998 142.529 113.005 142.529 111.779C142.529 110.553 141.535 109.56 140.31 109.56C139.084 109.56 138.091 110.553 138.091 111.779C138.091 113.005 139.084 113.998 140.31 113.998Z" fill="white" stroke="#FFC800" stroke-width="1.77536"/>
<path d="M151.85 106.897C153.075 106.897 154.069 105.903 154.069 104.678C154.069 103.452 153.075 102.458 151.85 102.458C150.624 102.458 149.63 103.452 149.63 104.678C149.63 105.903 150.624 106.897 151.85 106.897Z" fill="white" stroke="#FFC800" stroke-width="1.77536"/>
<path d="M98.0011 68.2657L108.631 70.666L119.26 74.2132L129.89 70.058L140.519 75.1178L151.149 77.6033" stroke="#FFC800" stroke-width="1.77536"/>
<path d="M107.466 72.2772C108.691 72.2772 109.685 71.2836 109.685 70.058C109.685 68.8323 108.691 67.8388 107.466 67.8388C106.24 67.8388 105.246 68.8323 105.246 70.058C105.246 71.2836 106.24 72.2772 107.466 72.2772Z" fill="white" stroke="#FFC800" stroke-width="1.77536"/>
<path d="M95.9257 68.7265C97.1513 68.7265 98.1449 67.7329 98.1449 66.5073C98.1449 65.2816 97.1513 64.288 95.9257 64.288C94.7001 64.288 93.7065 65.2816 93.7065 66.5073C93.7065 67.7329 94.7001 68.7265 95.9257 68.7265Z" fill="white" stroke="#FFC800" stroke-width="1.77536"/>
<path d="M118.118 76.7156C119.343 76.7156 120.337 75.722 120.337 74.4964C120.337 73.2707 119.343 72.2772 118.118 72.2772C116.892 72.2772 115.899 73.2707 115.899 74.4964C115.899 75.722 116.892 76.7156 118.118 76.7156Z" fill="white" stroke="#FFC800" stroke-width="1.77536"/>
<path d="M129.658 72.2772C130.883 72.2772 131.877 71.2836 131.877 70.058C131.877 68.8323 130.883 67.8388 129.658 67.8388C128.432 67.8388 127.438 68.8323 127.438 70.058C127.438 71.2836 128.432 72.2772 129.658 72.2772Z" fill="white" stroke="#FFC800" stroke-width="1.77536"/>
<path d="M140.31 77.6033C141.535 77.6033 142.529 76.6097 142.529 75.3841C142.529 74.1584 141.535 73.1649 140.31 73.1649C139.084 73.1649 138.091 74.1584 138.091 75.3841C138.091 76.6097 139.084 77.6033 140.31 77.6033Z" fill="white" stroke="#FFC800" stroke-width="1.77536"/>
<path d="M151.85 80.2663C153.075 80.2663 154.069 79.2727 154.069 78.0471C154.069 76.8215 153.075 75.8279 151.85 75.8279C150.624 75.8279 149.63 76.8215 149.63 78.0471C149.63 79.2727 150.624 80.2663 151.85 80.2663Z" fill="white" stroke="#FFC800" stroke-width="1.77536"/>
</g>
<defs>
<clipPath id="clip0_1_348">
<rect width="245" height="161.558" fill="white" transform="translate(0.5 0.375)"/>
</clipPath>
</defs>
</svg>
