<svg width="35" height="35" viewBox="0 0 35 35" fill="none" xmlns="http://www.w3.org/2000/svg">
<g clip-path="url(#clip0_1_423)">
<path d="M25.41 18.4143C25.4398 16.1098 26.6495 13.9811 28.6155 12.7741C27.3696 10.9972 25.3576 9.91097 23.1866 9.84313C20.9024 9.6037 18.688 11.2081 17.524 11.2081C16.3375 11.2081 14.5455 9.86691 12.6156 9.90656C10.0765 9.98848 7.76668 11.3952 6.53134 13.6121C3.90063 18.1606 5.86291 24.8454 8.38291 28.522C9.64371 30.3223 11.1172 32.3334 13.0453 32.2621C14.932 32.184 15.6367 31.0606 17.9141 31.0606C20.1704 31.0606 20.8316 32.2621 22.7988 32.2168C24.8234 32.184 26.0989 30.4084 27.3155 28.591C28.2214 27.3082 28.9184 25.8904 29.3809 24.3902C26.9763 23.3745 25.4129 21.0216 25.41 18.4143Z" fill="#4B4B4B"/>
<path d="M21.6943 7.42514C22.7982 6.10177 23.3421 4.40081 23.2104 2.68347C21.5239 2.86036 19.966 3.6653 18.8473 4.93789C17.7425 6.19348 17.1828 7.83611 17.2915 9.50401C19.0006 9.52158 20.6233 8.75537 21.6943 7.42514Z" fill="#4B4B4B"/>
</g>
<defs>
<clipPath id="clip0_1_423">
<rect width="34" height="34" fill="white" transform="translate(0.6875 0.845627)"/>
</clipPath>
</defs>
</svg>
