<svg width="44" height="43" viewBox="0 0 44 43" fill="none" xmlns="http://www.w3.org/2000/svg">
<path fill-rule="evenodd" clip-rule="evenodd" d="M9.4586 13.074L13.3829 16.1724C13.6602 16.3914 14.0601 16.3569 14.2958 16.0936L20.1955 9.50531C21.1815 8.4043 22.8732 8.31101 23.9743 9.29694C24.0252 9.34256 24.0744 9.39011 24.1217 9.4395L30.508 16.1074C30.7527 16.3629 31.1539 16.3837 31.4237 16.1551L35.0592 13.074C35.7853 12.4587 36.8726 12.5484 37.4879 13.2744C37.8484 13.6999 37.9808 14.2735 37.8431 14.8139L33.4681 31.9871C33.2298 32.9227 32.3872 33.5775 31.4217 33.5775H12.7941C11.8286 33.5775 10.9861 32.9227 10.7477 31.9871L6.43044 15.0404C6.17056 14.0204 6.78684 12.9828 7.80692 12.7229C8.38211 12.5763 8.99274 12.7061 9.4586 13.074Z" fill="#FFC800"/>
<path fill-rule="evenodd" clip-rule="evenodd" d="M11.8854 17.405L13.1299 18.5428C13.5603 18.9363 14.2281 18.9064 14.6216 18.476C14.6382 18.4579 14.654 18.4392 14.6693 18.4201L17.7661 14.5196C18.2256 13.9409 19.0673 13.8442 19.646 14.3037C19.9385 14.5359 20.1206 14.8798 20.1483 15.2521L21.2462 29.9767C21.3011 30.7136 20.7482 31.3555 20.0113 31.4105C19.9782 31.4129 19.945 31.4142 19.9118 31.4142H14.7225C14.1052 31.4142 13.568 30.9919 13.4223 30.392L10.4708 18.2419C10.3588 17.7808 10.6418 17.3162 11.1029 17.2042C11.3809 17.1367 11.6743 17.212 11.8854 17.405Z" fill="#FFDE00"/>
</svg>
