<svg width="44" height="43" viewBox="0 0 44 43" fill="none" xmlns="http://www.w3.org/2000/svg">
<path d="M22.4388 35.1021C28.2547 35.1021 32.9694 30.429 32.9694 24.6645C32.9694 18.8999 28.2547 14.2269 22.4388 14.2269C16.6229 14.2269 11.9082 18.8999 11.9082 24.6645C11.9082 30.429 16.6229 35.1021 22.4388 35.1021Z" fill="#FF9600"/>
<path fill-rule="evenodd" clip-rule="evenodd" d="M23.9885 9.56792L30.6614 18.1293C30.8727 18.4003 31.0036 18.7251 31.0392 19.0668C31.0748 19.4086 31.0137 19.7534 30.8629 20.0621C30.712 20.3708 30.4775 20.6309 30.1861 20.8129C29.8946 20.9948 29.5579 21.0912 29.2144 21.091H15.6641C15.3206 21.0912 14.984 20.9949 14.6925 20.8131C14.4011 20.6313 14.1666 20.3713 14.0157 20.0627C13.8648 19.7541 13.8035 19.4094 13.839 19.0677C13.8744 18.7261 14.0051 18.4012 14.2161 18.1302L20.889 9.56792C21.0729 9.33233 21.308 9.14175 21.5765 9.01067C21.8451 8.87959 22.14 8.81146 22.4388 8.81146C22.7376 8.81146 23.0325 8.87959 23.301 9.01067C23.5696 9.14175 23.8047 9.33233 23.9885 9.56792Z" fill="#FF9600"/>
<path fill-rule="evenodd" clip-rule="evenodd" d="M14.9375 13.1194L28.4228 21.8027C28.745 22.0103 28.9941 22.3136 29.1351 22.67C29.276 23.0264 29.3018 23.418 29.2088 23.7898C29.1157 24.1617 28.9085 24.495 28.6163 24.743C28.3241 24.991 27.9615 25.1412 27.5795 25.1725L13.8923 26.2958C13.6398 26.3165 13.3857 26.2847 13.1461 26.2024C12.9065 26.12 12.6866 25.9889 12.5002 25.8174C12.3138 25.6458 12.1649 25.4374 12.063 25.2055C11.9611 24.9735 11.9084 24.723 11.9082 24.4696V14.7718C11.9083 14.4188 12.0035 14.0723 12.1837 13.7688C12.364 13.4652 12.6227 13.2159 12.9326 13.0468C13.2425 12.8778 13.5922 12.7953 13.945 12.808C14.2978 12.8208 14.6406 12.9283 14.9375 13.1194Z" fill="#FF9600"/>
<path d="M22.4388 30.8468C24.9207 30.8468 26.9327 28.8642 26.9327 26.4187C26.9327 23.9731 24.9207 21.9905 22.4388 21.9905C19.9568 21.9905 17.9448 23.9731 17.9448 26.4187C17.9448 28.8642 19.9568 30.8468 22.4388 30.8468Z" fill="#FFC800"/>
<path fill-rule="evenodd" clip-rule="evenodd" d="M23.1013 20.0152L25.9367 23.6324C26.0277 23.7483 26.0844 23.8875 26.1001 24.034C26.1158 24.1806 26.0899 24.3286 26.0255 24.4611C25.961 24.5937 25.8606 24.7054 25.7356 24.7836C25.6107 24.8618 25.4663 24.9032 25.3189 24.9031H19.5586C19.4113 24.9032 19.2668 24.8618 19.1419 24.7836C19.0169 24.7054 18.9165 24.5937 18.852 24.4611C18.7876 24.3286 18.7617 24.1806 18.7775 24.034C18.7932 23.8875 18.8498 23.7483 18.9408 23.6324L21.7762 20.0152C21.855 19.9148 21.9556 19.8337 22.0704 19.7779C22.1852 19.722 22.3111 19.6931 22.4388 19.6931C22.5664 19.6931 22.6923 19.722 22.8071 19.7779C22.9219 19.8337 23.0225 19.9148 23.1013 20.0152Z" fill="#FFC800"/>
</svg>
