<svg width="44" height="44" viewBox="0 0 44 44" fill="none" xmlns="http://www.w3.org/2000/svg">
<path fill-rule="evenodd" clip-rule="evenodd" d="M10.979 20.8054C10.979 14.5907 16.0171 9.55267 22.2317 9.55267C28.4464 9.55267 33.4844 14.5907 33.4844 20.8054V21.1465C35.5158 22.1384 36.9151 24.2243 36.9151 26.6371C36.9151 30.0097 34.181 32.7437 30.8084 32.7437H13.5177C10.1451 32.7437 7.41103 30.0097 7.41103 26.6371C7.41103 24.1703 8.87368 22.0451 10.979 21.0815V20.8054Z" fill="#9069CD"/>
<path fill-rule="evenodd" clip-rule="evenodd" d="M13.5281 26.3666C11.9131 26.0484 10.695 24.6246 10.695 22.9162C10.695 21.1784 11.9554 19.735 13.612 19.4503C14.256 15.434 17.7372 12.3657 21.935 12.3657C26.1328 12.3657 29.614 15.4341 30.258 19.4504C31.9141 19.7354 33.1742 21.1786 33.1742 22.9162C33.1742 24.6243 31.9565 26.048 30.3418 26.3665C30.0214 30.7296 26.38 34.1701 21.935 34.1701C17.4901 34.1701 13.8486 30.7298 13.5281 26.3666Z" fill="#F3AD6D"/>
<path fill-rule="evenodd" clip-rule="evenodd" d="M19.0744 20.1875C19.0744 19.619 19.5353 19.1582 20.1037 19.1582C20.6721 19.1582 21.1329 19.619 21.1329 20.1875V22.932C21.1329 23.5004 20.6721 23.9612 20.1037 23.9612C19.5353 23.9612 19.0744 23.5004 19.0744 22.932V20.1875Z" fill="#BF8034"/>
<path fill-rule="evenodd" clip-rule="evenodd" d="M22.6425 20.1875C22.6425 19.619 23.1034 19.1582 23.6717 19.1582C24.2402 19.1582 24.7009 19.619 24.7009 20.1875V22.932C24.7009 23.5004 24.2402 23.9612 23.6717 23.9612C23.1034 23.9612 22.6425 23.5004 22.6425 22.932V20.1875Z" fill="#BF8034"/>
<path d="M19.0744 25.5089H24.8528C25.2106 25.5089 25.5007 25.7989 25.5007 26.1568V26.4928C25.5007 28.4463 23.9171 30.0299 21.9636 30.0299C20.0101 30.0299 18.4264 28.4463 18.4264 26.4928V26.1568C18.4264 25.7989 18.7165 25.5089 19.0744 25.5089Z" fill="white"/>
<path fill-rule="evenodd" clip-rule="evenodd" d="M24.5787 12.1464L25.0621 12.718V14.6521L22.5593 17.2459L19.0467 19.0921L15.1392 19.7515H12.9002V18.5647L14.1735 15.9489L15.9297 13.6852L19.7494 11.7949H23.0422L24.5787 12.1464Z" fill="#9069CD"/>
<path d="M11.3348 20.1186H14.2694C17.9072 20.0938 23.6972 19.5766 25.5835 12.9191C25.68 12.5283 25.7728 12.0764 25.8619 11.5635" stroke="#9069CD" stroke-width="1.85712"/>
</svg>
